<svg xmlns="http://www.w3.org/2000/svg" baseProfile="tiny" viewBox="0 0 200 50">
<g>
	<g>
		<path fill="#FFFFFF" d="M54.57,8.546c-1.764-0.688-4.022-1.036-6.711-1.036c-4.582,0-10.163,1.027-15.973,2.894
			C24.67,3.992,17.354,0,12.362,0C10.604,0,9.176,0.487,8.12,1.449c-2.435,2.217-2.539,6.661-0.305,12.54L3.853,12.6v14.329
			c-3.354,3.796-4.575,7.276-3.438,9.95c0.627,1.476,1.917,2.603,3.833,3.349c1.764,0.687,4.021,1.035,6.71,1.035
			c1.273,0,2.624-0.08,4.034-0.234c-0.074,0.484,0.002,0.992,0.448,1.54c0.982,1.2,2.592,0.562,3.654,0.229
			c-0.41,1.062-1.288,2.205-0.16,3.488c1.126,1.292,3.729,0.693,5-0.527c1.268-1.221,1.39-3.155,0.274-4.313
			c-0.77-0.794-1.917-0.979-2.976-0.646c0.114-0.295,0.184-0.598,0.212-0.901c1.154-0.27,2.328-0.578,3.516-0.924
			c0.356,0.219,0.687,0.481,0.981,0.785c1.189,1.229,1.611,2.896,1.355,4.505c0.002,0,0.006,0,0.008,0.003
			c0.02,0.025,0.736,0.83,1.183,1.284c0.876,0.883,2.307,0.883,3.186,0c0.394-0.399,0.609-0.909,0.648-1.433
			C37.558,47.828,42.502,50,46.183,50c1.759,0,3.186-0.487,4.242-1.448c2.495-2.272,2.543-6.879,0.138-12.974
			c-0.604-1.532-1.348-3.117-2.212-4.731c1.158,0.247,2.279-0.087,2.738-0.146c0.684-0.086,4.003-0.745,4.003-0.745V21.7
			c0.552-0.633,1.047-1.26,1.483-1.879c2.119-3.013,2.751-5.754,1.829-7.926C57.776,10.418,56.486,9.292,54.57,8.546z M8.978,2.404
			c0.814-0.741,1.952-1.117,3.384-1.117c2.889,0,6.889,1.554,11.262,4.375c2.269,1.464,4.575,3.218,6.858,5.207
			c-1.123,0.384-2.251,0.799-3.381,1.243c0.386-0.21,0.621-0.335,0.621-0.335S26.29,9.95,23.153,9.95
			c-3.136,0-9.687,4.321-9.687,4.321s-1.646,1.061-4.047,0.287c-0.084-0.205-0.168-0.408-0.248-0.61
			C7.009,8.468,6.938,4.261,8.978,2.404z M21.279,38.616c-0.123-0.325-0.309-0.628-0.563-0.892c-0.71-0.731-1.746-0.924-2.733-0.697
			c0.276-0.986,0.123-2.036-0.59-2.778c-0.712-0.729-1.747-0.926-2.734-0.696c0.274-0.985,0.122-2.035-0.592-2.774
			c-1.118-1.154-3.052-1.105-4.322,0.114c-1.264,1.221-2.073,3.432-0.945,4.734c1.126,1.295,2.42,0.507,3.406,0.281
			c-0.274,0.985-1.097,1.901-0.083,3.19c1.011,1.291,2.419,0.508,3.407,0.284c-0.028,0.1-0.061,0.199-0.097,0.299
			c-1.573,0.193-3.071,0.292-4.473,0.292c-5.053,0-8.38-1.279-9.368-3.603c-0.813-1.912,0.007-4.528,2.262-7.435v1.532
			c0,0,1.458,0.425,2.769,0.963c0.296-0.85,0.773-1.634,1.436-2.282c2.173-2.084,5.776-2.105,7.753-0.057
			c0.596,0.624,1.011,1.367,1.223,2.189c0.797,0.248,1.519,0.687,2.099,1.288c0.598,0.619,1.012,1.367,1.226,2.184
			c0.796,0.247,1.517,0.688,2.099,1.29c0.55,0.57,0.943,1.242,1.177,1.968C22.84,38.231,22.055,38.433,21.279,38.616z
			 M26.691,24.228c-1.464,0.773-2.517,1.012-3.012,1.008c-2.83-0.018-5.125-2.308-5.125-5.155c0-0.196,0.012-0.389,0.033-0.579
			c0.079-0.551,0.209-1.007,0.352-1.375c0.18-0.437,0.42-0.841,0.707-1.208c1.755-0.917,3.589-1.789,5.481-2.604
			c2.156-0.929,4.323-1.752,6.461-2.462c0.041,0.037,0.082,0.074,0.122,0.111c-3.034,1.693-6.955,3.937-9.142,5.271
			c-1.126,0.634-1.914,1.497-1.914,2.769c0,1.639,2.098,3.79,4.628,2.434c1.339-0.654,4.543-2.335,6.706-3.483
			c2.355-1.252,3.822,0.197,3.822,0.197s5.929,5.936,9.281,9.241c-0.979,0.639-2,1.266-3.054,1.876
			c-6.021-6.062-2.977-2.997-7.424-7.483c0,0-1.486-1.489-3.445-0.624C29.794,22.77,28.023,23.597,26.691,24.228z M37.747,32.574
			c-0.111,0.056-0.222,0.11-0.334,0.166c-0.116-0.188-0.167-0.319-0.122-0.364C37.345,32.321,37.512,32.404,37.747,32.574z
			 M49.374,36.053c2.163,5.479,2.233,9.687,0.193,11.543c-0.813,0.741-1.952,1.116-3.384,1.116c-2.889,0-6.889-1.554-11.263-4.375
			c-1.376-0.889-2.767-1.883-4.157-2.973c-0.913-1.003-2.163-2.438-2-2.604c0.25-0.252,4.237,3.924,4.311,3.999
			c0.875,0.882,2.305,0.882,3.184,0c0.877-0.882,0.875-2.319,0-3.204c-0.043-0.041-0.223-0.214-0.289-0.283
			c0,0-2.141-1.919-3.151-3.055c0.166-0.068,0.332-0.136,0.498-0.206c1.521,1.188,4.218,3.721,4.224,3.721
			c0.882,0.8,2.242,0.794,3.091-0.061c0.826-0.832,0.844-2.147,0.111-3.034c-0.01-0.03-1.515-1.621-2.539-2.855
			c0.204-0.101,0.406-0.202,0.609-0.304c1.128,1.038,2.464,2.423,2.469,2.428c0.873,0.881,2.305,0.881,3.184,0
			c0.875-0.881,0.875-2.32,0-3.209c-0.012-0.007-0.028-0.016-0.04-0.023c-0.528-0.532-1.009-1.016-1.453-1.462
			c1.052-0.617,2.07-1.249,3.048-1.892C47.391,31.632,48.522,33.897,49.374,36.053z M55.531,19.077
			c-0.139,0.198-0.286,0.397-0.438,0.597V14.34c0,0-4.91,1.107-8.04,1.773c-1.275,0.27-2.074-0.401-2.074-0.401
			s-2.451-2.125-5.205-4.458c-0.672-0.57-1.247-0.96-1.769-1.207c3.569-0.815,6.926-1.249,9.854-1.249
			c5.054,0,8.38,1.279,9.368,3.603C58.161,14.597,56.82,17.244,55.531,19.077z M82.601,9.265h-3.859v16.706h3.859V9.265z
			 M97.4,25.971v-7.906c0-0.518-0.043-1.051-0.129-1.6c-0.087-0.549-0.263-1.054-0.53-1.518c-0.267-0.462-0.647-0.839-1.141-1.129
			c-0.494-0.29-1.141-0.435-1.941-0.435c-1.083,0-2.04,0.2-2.871,0.6c-0.832,0.4-1.475,0.969-1.93,1.706v-2.07h-3.388v12.353h3.765
			v-7.082c0.109-0.314,0.266-0.604,0.47-0.871c0.204-0.266,0.427-0.498,0.67-0.694c0.243-0.195,0.502-0.348,0.776-0.458
			c0.274-0.109,0.545-0.165,0.812-0.165c0.502,0,0.906,0.185,1.212,0.553c0.306,0.369,0.459,0.96,0.459,1.776v6.941H97.4z
			 M107.824,25.312l-0.707-2.988c-0.235,0.11-0.502,0.211-0.8,0.305c-0.298,0.094-0.581,0.142-0.847,0.142
			c-0.313,0-0.576-0.09-0.788-0.271c-0.212-0.18-0.318-0.474-0.318-0.882v-5.153h2.518v-2.847h-2.518v-3.93H100.6v3.93h-1.576v2.847
			h1.576v6.447c0,0.596,0.09,1.105,0.271,1.529c0.181,0.424,0.428,0.765,0.741,1.024c0.314,0.258,0.678,0.447,1.094,0.564
			c0.416,0.117,0.859,0.177,1.33,0.177c0.69,0,1.365-0.095,2.023-0.283C106.718,25.735,107.306,25.532,107.824,25.312z
			 M121.118,22.912l-3.2-0.895c-0.173,0.455-0.514,0.816-1.023,1.083c-0.51,0.267-1.04,0.399-1.588,0.399
			c-0.69,0-1.306-0.215-1.847-0.646c-0.542-0.432-0.844-1.063-0.906-1.895h9.13c0.031-0.156,0.055-0.341,0.07-0.553
			c0.015-0.211,0.023-0.427,0.023-0.647c0-0.848-0.145-1.655-0.435-2.423c-0.291-0.769-0.718-1.448-1.283-2.036
			c-0.564-0.588-1.255-1.055-2.07-1.4c-0.816-0.345-1.75-0.518-2.8-0.518c-1.051,0-1.989,0.172-2.812,0.518
			c-0.823,0.345-1.518,0.816-2.083,1.412c-0.564,0.596-0.997,1.291-1.294,2.083c-0.298,0.792-0.447,1.635-0.447,2.529
			c0,0.832,0.149,1.627,0.447,2.388c0.297,0.761,0.733,1.432,1.306,2.012c0.572,0.58,1.271,1.039,2.094,1.376
			c0.823,0.337,1.753,0.506,2.789,0.506c1.427,0,2.65-0.307,3.67-0.918C119.878,24.676,120.631,23.885,121.118,22.912z
			 M113.317,16.783c0.479-0.462,1.086-0.694,1.824-0.694c0.721,0,1.326,0.228,1.812,0.683c0.486,0.455,0.768,1.074,0.847,1.858
			h-5.317C112.561,17.861,112.839,17.246,113.317,16.783z M127.235,18.559c0.345-0.564,0.882-0.988,1.612-1.271
			c0.729-0.283,1.549-0.431,2.459-0.447v-3.388c-0.079-0.015-0.275-0.023-0.588-0.023c-0.753,0.032-1.463,0.278-2.129,0.741
			c-0.667,0.463-1.22,1.11-1.659,1.941v-2.494h-3.459v12.353h3.765V18.559z M144.176,14.947c-0.267-0.462-0.647-0.839-1.141-1.129
			c-0.494-0.29-1.141-0.435-1.941-0.435c-1.083,0-2.04,0.2-2.871,0.6c-0.832,0.4-1.474,0.969-1.929,1.706v-2.07h-3.388v12.353h3.765
			v-7.082c0.109-0.314,0.267-0.604,0.471-0.871c0.203-0.266,0.427-0.498,0.67-0.694c0.243-0.195,0.502-0.348,0.776-0.458
			c0.274-0.109,0.545-0.165,0.812-0.165c0.502,0,0.906,0.185,1.212,0.553c0.306,0.369,0.459,0.96,0.459,1.776v6.941h3.765v-7.906
			c0-0.518-0.044-1.051-0.129-1.6C144.619,15.916,144.442,15.411,144.176,14.947z M156.576,19.865
			c-0.392-0.29-0.902-0.553-1.53-0.788c-0.627-0.235-1.396-0.47-2.306-0.706c-0.439-0.11-0.808-0.208-1.106-0.294
			c-0.298-0.086-0.538-0.181-0.718-0.283s-0.31-0.211-0.388-0.329c-0.078-0.118-0.118-0.263-0.118-0.436
			c0-0.36,0.153-0.623,0.459-0.788c0.306-0.165,0.694-0.247,1.165-0.247c0.565,0,1.149,0.098,1.753,0.294
			c0.604,0.196,1.29,0.506,2.059,0.93l1.482-2.377c-0.863-0.454-1.745-0.812-2.647-1.07c-0.902-0.259-1.785-0.388-2.647-0.388
			c-0.738,0-1.416,0.102-2.036,0.305c-0.62,0.205-1.157,0.487-1.612,0.848c-0.455,0.361-0.812,0.8-1.07,1.317
			c-0.259,0.518-0.388,1.09-0.388,1.718c0,0.471,0.078,0.878,0.235,1.223c0.157,0.346,0.412,0.655,0.765,0.93
			c0.353,0.275,0.819,0.522,1.399,0.741c0.581,0.22,1.287,0.439,2.118,0.659c0.956,0.251,1.631,0.467,2.023,0.646
			c0.392,0.181,0.588,0.436,0.588,0.765c0,0.329-0.145,0.58-0.435,0.753c-0.291,0.173-0.71,0.259-1.259,0.259
			c-0.706,0-1.443-0.125-2.211-0.377c-0.769-0.251-1.561-0.612-2.377-1.083l-1.482,2.541c0.376,0.236,0.815,0.452,1.317,0.647
			c0.502,0.196,1.027,0.361,1.576,0.494c0.549,0.134,1.102,0.24,1.659,0.318c0.556,0.079,1.094,0.118,1.612,0.118
			c0.8,0,1.521-0.095,2.165-0.283c0.643-0.188,1.191-0.455,1.646-0.8c0.455-0.345,0.804-0.765,1.047-1.258
			c0.243-0.494,0.364-1.047,0.364-1.659c0-0.518-0.086-0.965-0.258-1.341C157.25,20.489,156.968,20.155,156.576,19.865z
			 M170.682,14.924c-0.275-0.447-0.667-0.815-1.177-1.106c-0.51-0.29-1.181-0.435-2.012-0.435c-0.91,0-1.737,0.2-2.482,0.6
			c-0.745,0.4-1.345,0.969-1.8,1.706V8.794h-3.765v17.176h3.765v-7.082c0.109-0.33,0.267-0.627,0.471-0.894
			c0.204-0.267,0.427-0.498,0.67-0.694c0.243-0.196,0.494-0.345,0.753-0.447c0.259-0.102,0.498-0.153,0.718-0.153
			c0.548,0,0.984,0.188,1.306,0.565c0.321,0.376,0.482,0.964,0.482,1.765v6.941h3.765v-7.906c0-0.533-0.047-1.079-0.141-1.635
			C171.14,15.873,170.956,15.371,170.682,14.924z M173.822,25.971h3.765V13.618h-3.765V25.971z M173.822,12.206h3.765V8.794h-3.765
			V12.206z M192.869,17.253c-0.29-0.776-0.69-1.451-1.2-2.024c-0.51-0.572-1.117-1.023-1.823-1.353
			c-0.706-0.33-1.475-0.494-2.306-0.494c-0.941,0-1.749,0.196-2.423,0.588c-0.675,0.393-1.24,0.941-1.694,1.647v-2h-3.294v17.365
			h3.765v-7.012c0.392,0.706,0.933,1.255,1.623,1.647c0.69,0.392,1.506,0.588,2.447,0.588c0.768,0,1.478-0.165,2.129-0.494
			c0.651-0.33,1.215-0.78,1.694-1.354c0.479-0.572,0.851-1.25,1.118-2.035c0.267-0.784,0.4-1.639,0.4-2.565
			C193.305,18.865,193.159,18.03,192.869,17.253z M189.246,20.994c-0.133,0.4-0.326,0.75-0.576,1.047
			c-0.251,0.298-0.545,0.537-0.883,0.718c-0.337,0.18-0.71,0.271-1.117,0.271c-0.581,0-1.126-0.212-1.635-0.635
			c-0.51-0.424-0.891-0.949-1.141-1.577v-2.541c0.267-0.518,0.635-0.93,1.105-1.235c0.471-0.306,0.965-0.459,1.482-0.459
			c0.439,0,0.839,0.079,1.2,0.235c0.361,0.157,0.671,0.376,0.93,0.659c0.259,0.283,0.463,0.616,0.612,1
			c0.149,0.384,0.224,0.804,0.224,1.259C189.446,20.175,189.379,20.594,189.246,20.994z M83.542,39.265l-1.165-2.8l1.035-2.494
			H82.73l-0.788,2l-0.8-2h-0.683l1.048,2.494l-1.165,2.8l-2.235-5.306h-0.765l2.624,6.13h0.67l1.306-3.13l1.306,3.13h0.671
			l2.623-6.13h-0.776L83.542,39.265z M92.447,34.794c-0.267-0.29-0.586-0.52-0.958-0.688c-0.373-0.168-0.782-0.253-1.229-0.253
			s-0.857,0.084-1.229,0.253c-0.373,0.169-0.696,0.396-0.971,0.683s-0.488,0.62-0.641,1s-0.229,0.787-0.229,1.217
			c0,0.439,0.076,0.851,0.229,1.236c0.153,0.384,0.366,0.723,0.641,1.017c0.275,0.294,0.6,0.525,0.977,0.694
			c0.377,0.168,0.789,0.252,1.236,0.252c0.29,0,0.572-0.036,0.847-0.111c0.274-0.075,0.525-0.18,0.753-0.318
			c0.228-0.137,0.427-0.298,0.6-0.483c0.172-0.184,0.306-0.39,0.4-0.617l-0.694-0.188c-0.071,0.165-0.17,0.316-0.3,0.453
			c-0.129,0.137-0.276,0.253-0.441,0.347s-0.346,0.169-0.542,0.224c-0.196,0.055-0.396,0.082-0.6,0.082
			c-0.298,0-0.579-0.057-0.841-0.171c-0.263-0.113-0.495-0.272-0.694-0.476c-0.2-0.204-0.365-0.445-0.494-0.724
			c-0.129-0.278-0.206-0.582-0.229-0.911h5.235c0.007-0.024,0.014-0.067,0.018-0.13s0.006-0.125,0.006-0.188
			c0-0.424-0.075-0.824-0.224-1.2C92.922,35.417,92.714,35.084,92.447,34.794z M88.012,36.701c0.023-0.322,0.096-0.62,0.218-0.895
			c0.121-0.274,0.282-0.51,0.482-0.706c0.2-0.196,0.434-0.349,0.701-0.459c0.266-0.109,0.548-0.165,0.847-0.165
			c0.298,0,0.58,0.056,0.847,0.165c0.266,0.11,0.5,0.263,0.7,0.459c0.2,0.196,0.365,0.43,0.494,0.701
			c0.129,0.27,0.206,0.57,0.229,0.9H88.012z M99.665,34.847c-0.239-0.302-0.531-0.543-0.876-0.723s-0.729-0.271-1.153-0.271
			c-0.518,0-0.969,0.127-1.354,0.382c-0.384,0.255-0.713,0.591-0.988,1.006V31.5h-0.8v8.588h0.718V38.9
			c0.228,0.384,0.545,0.698,0.953,0.941c0.407,0.243,0.851,0.364,1.33,0.364c0.408,0,0.79-0.084,1.147-0.252
			c0.356-0.169,0.666-0.396,0.93-0.682c0.262-0.286,0.468-0.622,0.617-1.006c0.149-0.384,0.224-0.792,0.224-1.224
			c0-0.4-0.064-0.79-0.194-1.17C100.088,35.49,99.904,35.149,99.665,34.847z M99.418,37.953c-0.114,0.294-0.271,0.558-0.471,0.789
			s-0.439,0.416-0.718,0.552c-0.278,0.138-0.586,0.206-0.923,0.206c-0.204,0-0.416-0.039-0.635-0.118
			c-0.22-0.078-0.428-0.184-0.624-0.317c-0.196-0.133-0.363-0.292-0.5-0.477c-0.137-0.184-0.222-0.382-0.252-0.594v-1.906
			c0.094-0.204,0.213-0.398,0.359-0.583c0.145-0.185,0.308-0.347,0.488-0.488c0.18-0.142,0.376-0.253,0.588-0.336
			c0.212-0.082,0.439-0.124,0.683-0.124c0.322,0,0.616,0.069,0.882,0.206c0.267,0.138,0.496,0.322,0.688,0.553
			c0.192,0.232,0.341,0.496,0.447,0.794c0.106,0.299,0.159,0.608,0.159,0.93C99.588,37.355,99.531,37.659,99.418,37.953z
			 M109.848,34.824c-0.259-0.294-0.567-0.53-0.924-0.706c-0.357-0.177-0.747-0.265-1.171-0.265c-0.47,0-0.905,0.12-1.306,0.359
			c-0.4,0.239-0.726,0.551-0.977,0.935v-1.188h-0.718v8.636h0.8v-3.777c0.243,0.4,0.565,0.732,0.965,0.994
			c0.4,0.263,0.859,0.394,1.376,0.394c0.408,0,0.782-0.084,1.124-0.252c0.341-0.169,0.635-0.397,0.882-0.688
			c0.247-0.29,0.437-0.628,0.57-1.012c0.134-0.384,0.2-0.792,0.2-1.224c0-0.408-0.073-0.804-0.218-1.188
			C110.308,35.458,110.106,35.118,109.848,34.824z M109.694,37.941c-0.102,0.294-0.249,0.557-0.441,0.789
			c-0.192,0.231-0.422,0.417-0.688,0.559C108.298,39.43,108,39.5,107.671,39.5c-0.228,0-0.449-0.039-0.665-0.118
			c-0.216-0.078-0.416-0.186-0.6-0.323c-0.185-0.137-0.349-0.3-0.494-0.488c-0.146-0.188-0.265-0.392-0.359-0.612v-1.882
			c0.032-0.203,0.116-0.397,0.253-0.583c0.137-0.184,0.304-0.345,0.5-0.482c0.196-0.137,0.404-0.247,0.624-0.33
			c0.219-0.082,0.431-0.124,0.635-0.124c0.321,0,0.622,0.067,0.9,0.2c0.278,0.134,0.52,0.314,0.724,0.542
			c0.204,0.228,0.365,0.491,0.482,0.789s0.177,0.612,0.177,0.941C109.848,37.344,109.796,37.647,109.694,37.941z M116.818,34.806
			c-0.271-0.29-0.593-0.521-0.965-0.694c-0.373-0.172-0.779-0.259-1.217-0.259c-0.439,0-0.846,0.086-1.218,0.259
			c-0.372,0.173-0.694,0.404-0.964,0.694c-0.271,0.291-0.482,0.628-0.635,1.012c-0.153,0.385-0.229,0.792-0.229,1.224
			c0,0.423,0.074,0.828,0.223,1.212c0.149,0.384,0.359,0.722,0.629,1.012c0.271,0.291,0.592,0.519,0.965,0.688
			c0.373,0.168,0.783,0.252,1.23,0.252c0.438,0,0.845-0.084,1.217-0.252c0.372-0.169,0.694-0.397,0.965-0.688
			c0.271-0.29,0.482-0.628,0.635-1.012c0.153-0.384,0.229-0.789,0.229-1.212c0-0.431-0.077-0.839-0.229-1.224
			C117.3,35.434,117.088,35.097,116.818,34.806z M116.683,37.995c-0.118,0.298-0.279,0.559-0.483,0.782
			c-0.204,0.224-0.441,0.399-0.711,0.529s-0.559,0.194-0.865,0.194s-0.594-0.062-0.865-0.188s-0.506-0.301-0.706-0.524
			c-0.2-0.224-0.356-0.482-0.47-0.776c-0.114-0.294-0.17-0.614-0.17-0.959c0-0.345,0.059-0.668,0.176-0.97
			c0.118-0.302,0.277-0.566,0.477-0.794c0.2-0.227,0.435-0.406,0.706-0.536c0.271-0.129,0.559-0.194,0.865-0.194
			c0.306,0,0.592,0.065,0.858,0.194c0.267,0.129,0.502,0.306,0.706,0.53c0.204,0.224,0.365,0.486,0.483,0.788
			c0.118,0.302,0.176,0.622,0.176,0.959C116.859,37.375,116.8,37.696,116.683,37.995z M121.694,33.924
			c-0.4,0-0.772,0.144-1.118,0.429c-0.345,0.287-0.623,0.645-0.835,1.077v-1.471h-0.752v6.13h0.8v-3.812
			c0.165-0.494,0.447-0.882,0.847-1.164c0.4-0.283,0.871-0.432,1.412-0.447v-0.729c-0.039-0.008-0.09-0.012-0.153-0.012H121.694z
			 M125.541,39.306c-0.172,0.075-0.373,0.111-0.6,0.111c-0.196,0-0.365-0.052-0.506-0.159c-0.141-0.105-0.22-0.272-0.235-0.5v-4.165
			h1.412v-0.635H124.2v-2.07h-0.8v2.07h-0.848v0.635h0.848v4.388c0,0.196,0.035,0.369,0.105,0.518
			c0.07,0.149,0.165,0.273,0.283,0.371c0.117,0.099,0.254,0.17,0.412,0.218c0.156,0.047,0.321,0.07,0.494,0.07
			c0.165,0,0.321-0.015,0.47-0.047c0.149-0.031,0.283-0.066,0.4-0.105c0.117-0.039,0.221-0.078,0.312-0.118
			c0.09-0.039,0.159-0.071,0.206-0.095l-0.212-0.646C125.823,39.179,125.713,39.232,125.541,39.306z M131.729,39.053v-2.764
			c0-0.761-0.22-1.357-0.659-1.788c-0.439-0.431-1.031-0.647-1.776-0.647c-0.408,0-0.8,0.067-1.177,0.2
			c-0.376,0.133-0.764,0.333-1.165,0.6l0.282,0.529c0.337-0.235,0.668-0.416,0.995-0.542c0.325-0.125,0.653-0.188,0.982-0.188
			c0.525,0,0.943,0.158,1.252,0.476c0.31,0.318,0.465,0.748,0.465,1.289v0.553c-0.251-0.102-0.538-0.181-0.859-0.235
			c-0.321-0.055-0.635-0.083-0.941-0.083c-0.384,0-0.735,0.045-1.053,0.135c-0.317,0.091-0.59,0.217-0.817,0.382
			c-0.228,0.165-0.404,0.363-0.53,0.594c-0.125,0.232-0.188,0.488-0.188,0.771c0,0.251,0.051,0.49,0.153,0.717
			c0.102,0.228,0.245,0.428,0.429,0.601c0.185,0.173,0.406,0.308,0.665,0.406c0.259,0.098,0.545,0.146,0.859,0.146
			c0.447,0,0.888-0.1,1.323-0.3c0.435-0.2,0.786-0.479,1.053-0.841l0.024,0.482c0.016,0.188,0.088,0.329,0.217,0.424
			c0.13,0.094,0.272,0.141,0.43,0.141c0.039,0,0.086-0.002,0.141-0.006s0.114-0.009,0.177-0.017v-0.707
			C131.823,39.382,131.729,39.273,131.729,39.053z M130.929,38.276c0,0.071-0.02,0.147-0.059,0.23
			c-0.039,0.082-0.086,0.159-0.141,0.229c-0.204,0.267-0.48,0.477-0.83,0.63c-0.349,0.153-0.7,0.229-1.053,0.229
			c-0.259,0-0.482-0.039-0.67-0.117s-0.347-0.181-0.477-0.306s-0.226-0.267-0.288-0.423c-0.063-0.157-0.094-0.318-0.094-0.482
			c0-0.408,0.179-0.728,0.535-0.959s0.821-0.347,1.394-0.347c0.275,0,0.557,0.028,0.847,0.083c0.29,0.055,0.569,0.133,0.835,0.235
			V38.276z M135.329,39.395c-0.118,0.023-0.22,0.035-0.306,0.035c-0.228,0-0.404-0.064-0.529-0.194
			c-0.125-0.13-0.188-0.308-0.188-0.535v-7.2h-0.8v7.47c0,0.376,0.105,0.669,0.317,0.877c0.211,0.208,0.501,0.311,0.871,0.311
			c0.157,0,0.343-0.019,0.559-0.058c0.216-0.04,0.398-0.09,0.547-0.153l-0.142-0.647C135.557,39.34,135.447,39.371,135.329,39.395z"
			/>
	</g>
</g>
</svg>
