<svg xmlns="http://www.w3.org/2000/svg" baseProfile="tiny" viewBox="0 0 32 32">
<g>
	<g>
		<path fill="#FFFFFF" d="M14.673,4.172l1.336-0.981l1.335,0.981l-0.508-1.586l1.357-0.981H16.52L16.009,0l-0.512,1.606
			l-1.671-0.001l1.355,0.981L14.673,4.172z M7.761,6.04l1.336-0.98l1.334,0.98L9.924,4.454l1.356-0.98H9.607L9.096,1.867
			L8.584,3.476L6.913,3.474l1.355,0.98L7.761,6.04z M4.039,6.966L3.527,8.575L1.856,8.574l1.356,0.98l-0.508,1.586l1.335-0.981
			l1.335,0.981L4.867,9.554l1.355-0.98H4.551L4.039,6.966z M2.184,17.106l1.334,0.98L3.011,16.5l1.356-0.98H2.696l-0.512-1.607
			l-0.512,1.611L0,15.52l1.356,0.98l-0.508,1.586L2.184,17.106z M4.551,22.487L4.039,20.88l-0.512,1.609l-1.671-0.002l1.356,0.981
			l-0.508,1.586l1.335-0.982l1.335,0.982l-0.508-1.586l1.355-0.981H4.551z M9.618,27.585L9.106,25.98l-0.511,1.607l-1.672-0.002
			l1.356,0.981l-0.507,1.586l1.335-0.98l1.335,0.98l-0.507-1.586l1.355-0.981H9.618z M16.521,29.433l-0.511-1.607l-0.511,1.608
			l-1.672-0.001l1.355,0.981L14.675,32l1.335-0.981L17.345,32l-0.508-1.586l1.357-0.981H16.521z M23.424,27.585l-0.511-1.604
			l-0.513,1.607l-1.67-0.002l1.354,0.981l-0.507,1.586l1.336-0.98l1.335,0.98l-0.509-1.586l1.356-0.981H23.424z M28.493,22.487
			L27.98,20.88l-0.513,1.609l-1.67-0.002l1.356,0.981l-0.509,1.586l1.336-0.982l1.335,0.982l-0.509-1.586l1.357-0.981H28.493z
			 M32,15.5h-1.672l-0.513-1.607l-0.511,1.609L27.631,15.5l1.357,0.981l-0.507,1.585l1.333-0.982l1.336,0.982l-0.507-1.585L32,15.5z
			 M26.645,11.119l1.336-0.98l1.335,0.98l-0.509-1.586l1.357-0.979h-1.671L27.98,6.947l-0.513,1.609l-1.67-0.002l1.356,0.979
			L26.645,11.119z M22.933,1.868l-0.511,1.609L20.75,3.474l1.355,0.982l-0.508,1.585l1.338-0.981l1.334,0.981l-0.508-1.585
			l1.357-0.982h-1.674L22.933,1.868z"/>
	</g>
</g>
</svg>
