<svg xmlns="http://www.w3.org/2000/svg" baseProfile="tiny" viewBox="0 0 200 200">
<g>
	<g>
		<path fill="#FFFFFF" d="M140.312,20.859l0.016-0.019v-0.009l-0.016-0.019h-0.029l-0.014,0.019v0.018l0.014,0.01H140.312z
			 M53.375,189.875l0.24-0.345l-0.235-0.167l-0.289,0.076l-0.21-0.01l-1.017-0.173l-0.689,0.072l-0.574,0.21l-0.431,0.373
			l-0.074,0.462l0.451,0.245l0.314,0.146l2.333-0.792L53.375,189.875z M42.04,73.924l0.811,0.117l2.244-0.506l0.61,0.188
			l0.317,0.457l0.04,0.47l-0.092,0.572l-0.068,0.754l0.13,0.5l0.317,0.073l0.404-0.073l0.385,0.035l0.667,0.609l0.563,0.718
			l0.558,0.315l0.644-0.598l-0.12-0.69l0.086-0.89l0.2-0.808l0.234-0.399v-0.345l-0.234-0.275l-0.296-0.034l-0.333,0.109l-0.349,0.2
			v-0.383l0.173-0.262l0.092-0.345l0.009-0.4l-0.074-0.419h0.61l-0.61-1.37l-0.567-0.264L45.804,70.9l-0.608,0.335l-0.749,0.598
			l-0.759,0.219l-0.641-0.807l-0.259,0.291l-0.259,0.099l-0.247-0.09l-0.228-0.3l-0.352,1.017l-0.505,0.516l-0.641,0.194
			l-0.765,0.025v0.344l0.783,0.02L42.04,73.924z M46.223,82.75l2.096-0.091l0.527-0.271l0.306-0.348l0.055-0.2l-0.167-0.188
			l-0.392-0.237l-0.314-0.326l-0.237-0.108l-0.561,0.554l-1.353,0.554l-0.077,0.162l0.031,0.191l-0.013,0.156L46.223,82.75z
			 M38.092,176.597l0.536-0.351l0.204-0.381l-0.118-0.311l-0.326-0.037l-0.167,0.027l-0.228-0.225l-0.209-0.046l-0.552-0.028
			l-0.274,0.262l-1.517,1.055l-0.502,0.692l0.089,0.368l0.598-0.088l0.284-0.28l1.03-0.113L38.092,176.597z M91.351,22.029
			l1.292-0.419l-0.13-0.844l-0.247-0.473l-0.37-0.254l-0.469-0.209l-0.166-0.254l-0.179-0.109l-0.207,0.064l-0.259,0.299
			l0.049,0.084l0.092,0.134l0.059,0.135l-0.167,0.062l-0.438,0.329l0.068,0.4l0.024,0.072l-0.021,0.009l-0.071,0.234v0.319
			l0.49,0.382L91.351,22.029z M165.977,98.612l0.162-0.162l0.023-0.27l0.156-0.146l-0.174-0.301l-0.676,0.047l-0.176,0.335
			l0.289,0.363L165.977,98.612z M53.559,115.231l-0.308,0.447l0.974,0.697l3.504,1.643l0.536-0.155l0.047-0.389l-0.124-0.056
			l-0.099,0.047l-0.687-0.373l-0.021-0.337l0.262-0.363l-0.225-0.363l-0.758-0.297l-0.568-0.09l-0.721,0.152l-0.361-0.01
			l-0.749-0.569L53.559,115.231z M56.013,109.527l0.16,0.365l0.095,0.735l0.534,0.608l1.011-0.319l0.595-0.915l-0.721-1.226
			l-0.265-0.273l-0.392-0.084l-0.419,0.095l-0.342,0.263l-0.286,0.473L56.013,109.527z M57.301,108.284l0.99-0.328l0.067-0.244
			l-0.287-0.152l-0.241,0.019l-0.527-0.329l-0.447-0.072l-0.277,0.101l-0.24,0.172l-0.142,0.182l0.333,0.638L57.301,108.284z
			 M161.914,104.288l-0.506,0.339l-0.125,0.054l-0.314,0.315l-0.182,0.4l0.221,0.22l0.219-0.42l0.396-0.363l0.285-0.188l0.285-0.31
			l0.365-0.118l-0.24-0.073L161.914,104.288z M51.79,107.606l0.203,0.087l0.056,0.41l0.188,0.071l0.019-0.481l-0.102-0.325
			l-0.13-0.091l-0.086-0.253l-0.13-0.062l-0.074,0.115h-0.147l-0.161,0.172l0.028,0.182l0.145,0.075L51.79,107.606z M55.479,110.271
			l-0.275,0.401l-0.009,0.155l-0.114,0.119l-0.176,0.016h-0.132l-0.012,0.229l0.379-0.082l0.656,0.163l-0.013-0.626l0.062-0.176
			L55.479,110.271z M166.406,124.312l-1.24-1.437l-0.385-0.78l0.123-0.798l0.234-0.744l0.166-1.189l0.041-1.22l-0.139-0.813
			l0.102-0.093h0.031l0.018-0.035l0.053-0.183l-1.02-2.171l-0.398-0.598l0.209-0.901l-0.176-0.551l-0.348-0.429l-0.309-0.544
			l-0.172-0.745l-0.051-0.691l0.035-1.107l0.098-0.201l0.152-0.415v-0.398l-0.357-0.181l-0.227-0.056l-0.311-0.264l-0.832-0.2
			l-0.393-0.345l-0.578-0.882l-0.695-0.745l-0.201-0.426l0.086-0.554l1.732-1.373l0.213-0.054l0.514-0.263l0.283-0.054l0.117,0.106
			l0.367,0.491l0.125,0.12l0.418,0.234l0.402,0.345l0.371-0.017l0.332-0.91l-0.541-0.364l-1.221-0.068l-0.482-0.247l0.105-0.166
			l0.195-0.369l0.107-0.156l-0.277-0.363l-0.109-0.598l-0.141-0.554l-1.904-0.926l0.484-0.382l0.598-0.21l0.518,0.081l0.223,0.511
			l0.264-0.382l0.346-0.917l0.219-0.429l0.066-0.4l0.141-0.332l0.502-0.819l0.193-0.701l-0.066-0.751l-0.217-0.672l-0.234-0.464
			l-0.592-0.435l-0.891-0.445l-0.812-0.563l-0.51-1.236l-0.771-0.533l-0.289-0.272l-0.211-0.536l-0.195-0.725l-0.143-0.746
			l-0.213-3.561l0.15-1.365l0.611-0.698l-0.66-0.533l-0.295-0.783l0.029-0.898l0.318-0.907v-0.382l-2.195-0.301l-0.996-0.526
			l-0.656-0.909l-0.178-0.895l0.021-0.92l0.156-1.515l0.201-0.846l0.367-0.673l0.176-0.481l-0.355-0.245v-0.39l1.566,0.218
			l2.074,0.918l0.426-0.086l0.406,0.357l0.701,0.453l0.732,0.265l0.51-0.198l0.969-1.174l0.109-0.628l-0.574-0.852l-0.215-0.156
			l-0.26-0.101l-0.631-0.062l-0.178-0.162l-0.426-0.717l-0.213-0.167l-0.463-0.243l-1.867-1.853l-0.455-0.388l-0.443,0.062
			l-0.422,0.219l-0.395,0.088l-0.352-0.253l-0.229-0.354l-0.24-0.044l-0.395,0.688l-0.035,0.32l0.049,0.388l0.021,0.429
			l-0.125,0.425l-0.188,0.185l-0.699,0.116l-0.762,0.282h-0.215l-0.188-0.135l-0.178-0.229l-0.115-0.22l-0.02-0.091l-0.824,0.044
			l-2.533,0.958l-0.23-0.031l-0.455-0.197l-0.236,0.053l-0.152,0.176l-0.318,0.497l-0.164,0.101l-0.418-0.234l-0.793-0.982
			l-0.451-0.383l0.457-1.198l0.041-0.578l-0.314-0.591l0.666-0.874l0.277-0.945l-0.172-0.914l-0.674-0.81l-0.621-0.545l-0.314-0.182
			l-0.352-0.047l-0.322,0.194l-0.221,0.331l-0.242,0.267l-0.35-0.038l-0.648-0.415l-0.631-0.545l-0.574-0.692l-0.494-0.816
			l-0.174-0.52l-0.102-0.497l-0.135-0.435l-0.266-0.311l-1.051-0.553l0.518-0.282l0.236-0.52l-0.051-0.744l-0.629-1.772
			l-0.188-0.197l-0.355-0.036l-0.236-0.145l-0.271-0.873l-0.207-0.345l-1.84-1.57l-1.004-0.52l-0.93,0.082l-0.867,0.873
			l-1.439,2.315l-0.973,0.753l-0.244,0.011l-0.521-0.101l-0.203,0.109l-0.043,0.245l0.074,0.317l0.111,0.264l0.078,0.081l0.01,0.028
			l-0.23,0.479l-0.037-0.007l-0.16,0.207l-0.221-0.073l-0.146,0.038l0.07,0.553l1,0.502l-0.18,0.714l1.055,0.91l-0.41,0.579
			l0.188,0.845l-0.635,0.429l-1.621,0.435l-0.338,0.263l-0.242,0.257l-0.189,0.335l-0.17,0.517l0.145,0.2l0.275,0.238l0.035,0.268
			l-0.58,0.302l0.133,0.52l-0.078,0.519l-0.213,0.444l-0.279,0.316l-0.406,0.21l-0.105-0.201l0.033-0.463l-0.004-0.588l0.039-0.457
			l0.088-0.369l-0.102-0.132l-0.9,0.539l-0.217,0.272v0.335l0.68,1.445l-0.492,0.054l-1.441-0.498l-0.438,0.106l-0.133-0.038
			l-0.055-0.227l-0.221-0.443l-0.242-0.072l-0.299,0.044l-0.104-0.072l0.33-0.443l-0.742-0.063l-1.219,0.979l-0.639,0.135
			l-3.166-0.763l-0.352-0.251l-0.092-0.438l-0.051-0.454l-0.207-0.328l-2.141-1.625l-0.527-0.109l-1.762,0.129l-1.629-0.229
			l-0.576-0.363l-0.395-0.789l-0.117-2.277l-0.197-0.819l-0.434-0.336l-1.162-0.181l-0.494-0.199l-0.512-0.58l-0.389-0.738
			l-0.625-1.614l-0.865-0.01l-0.744-0.4l-0.697-0.745l-1.26-1.806l-0.709-0.801l-0.287-0.425l-0.061-0.42l-0.094-0.397l-0.373-0.354
			l0.701-0.4l1.574-0.472l0.73-0.435l0.342-0.328l0.148-0.217l0.367-0.764l0.6-0.901l0.627-0.716l2.248,0.535l1.164,0.056
			l1.133-0.454l2.955-2.869l1.23-0.409l-0.082-1.043l-0.318-0.08l-0.459,0.344l-0.494,0.244l-0.467-0.182l-0.949-0.87l-0.41-0.247
			l-0.221,0.072l-0.463,0.356l-0.246-0.012l-0.234-0.265L111,38.62l-0.252-0.165l-0.512-0.147l-0.49-0.325l-0.244-0.535l0.229-0.779
			l-0.182-0.101l-0.486-0.419l1.469-0.744l1.016-1.046l0.406,0.019l0.848,0.754l0.979,0.529l1.006-0.075l1.018-0.588l1.033-1.038
			l0.529-0.316l1.018,0.282l0.891-0.273l0.555,0.308l0.311,0.018l0.385-0.168l0.004-0.113l-0.156-0.182l-0.1-0.389l0.057-1.288
			l0.189-0.71l2.152-2.727l0.465-0.914l0.309-1.126v-0.544l-0.127-1.327l0.111-0.619l0.246-0.325l0.588-0.244l0.252-0.42
			l0.035-0.435l-0.168-1.336l0.119-0.369l0.158-0.066l0.078-0.081l-0.123-0.464l0.836-1.322l0.301-0.349l0.354-0.281l1.893-0.297
			l0.244-0.275l0.227-0.372l0.264-0.326l0.348-0.166l0.242-0.043l0.062-0.219l0.375-0.962l0.471-0.873l1.293-1.842l0.4-0.373
			l0.803-0.253l0.967-0.529l1.014-1.026l0.936-0.626l0.99-0.435l0.836-0.163l0.881-0.544l0.098-1.079l-0.418-0.802l-0.654,0.301
			l-0.617-0.481l-1.348-0.589l-1.104-0.2L132.82,5.31L132.377,4.9l-1.52-2.378l-0.4-0.344l-1.143-0.639l-0.482-0.068l-2.045-0.758
			l-1-0.588L125.252,0l-0.471,0.325l0.256,0.345l0.357,0.319l0.789,0.482l0.068,1.232l0.887,1.151l1.896,1.546l-0.588,0.438
			l-0.662-0.03l-0.652-0.308l-0.566-0.426l0.201,0.035l0.631-0.035l-0.457-0.963l-0.598-0.301l-0.602,0.19l-1.129,1.255
			l-0.654,0.019l-0.633-0.4l-0.588-0.519l0.061,0.275l0.02,0.15l0.023,0.118l0.08,0.175l-0.467,0.335l-0.418-0.071l-0.434-0.201
			l-0.5-0.062l0.314,0.832l-0.076,1.073l-0.322,0.918l-0.658,0.606l-0.006,0.52l0.113,0.554l0.127,0.354l0.225,0.3l0.703,0.601
			l1.189,1.887l0.209,0.082v1.261l-0.312,0.738l-0.119,0.481l0.137,0.216l0.549,0.311l0.129,0.731l-0.182,0.846l-0.385,0.657
			l-0.51,0.235l-0.68,0.172l-0.598,0.271l-0.254,0.573l-0.311,0.071l-2.814,2.788l-0.537,0.381l-0.592,0.182v-0.361l0.412-0.354
			l0.986-1.427l1.469-1.079l0.357-0.383l0.32-1.107l-0.574-0.31l-1.773,0.348v-0.362l1.621-1.075l0.539-0.664l0.348-0.31
			l0.447-0.135l0.289-0.391l0.17-0.864l-0.057-0.859l-0.402-0.4l-0.33-0.235l-0.346-0.591l-0.24-0.698l-0.012-0.626l-0.854-0.438
			l-0.387-0.353l-0.162-0.464l0.07-0.31l0.129-0.789l0.049-0.826l-0.146-0.381l-0.26-0.244l-0.238-0.52l-0.314-0.507l-0.502-0.2
			l-0.375,0.134l-1.062,0.945l-0.469,0.172l-1.057-0.172v0.291l-0.814,1.681l-0.104,0.66l0.359,0.338l0.869,0.263l0.273,0.319
			l0.242,0.382l0.289,0.301l0.41,0.081l-0.184-0.562l-0.193-0.821l-0.059-0.75l0.234-0.382l0.369,0.181l0.254,0.57l0.143,0.69
			l0.043,0.518l0.141,0.318l0.279,0.817l0.193,0.835l-0.107,0.373l-0.211,0.291l-0.471,1.398l-0.229,0.473l0.041-0.482l0.152-0.944
			l0.008-0.373l-0.084-0.379l-0.266-0.682l-0.055-0.2l-0.246-0.492l-0.564-0.534l-0.617-0.425l-0.395-0.195l-0.271,0.057
			l-0.291,0.345l-0.268-0.007l-0.205-0.165l-0.143-0.245l-0.098-0.219l-0.059-0.091l0.045-0.381l0.682-2.46l-0.113-0.118
			l-0.031-0.01l-0.078-0.264l-0.748,0.917l-0.783,0.601l-0.469,0.65l0.18,1.064l0.672,0.989l0.08,0.571l-0.348,0.955l-0.297,0.407
			l-0.26,0.027l-0.334-0.097l-0.543,0.017v-0.354l0.348-0.056l0.305-0.2l0.229-0.345l0.148-0.508l-0.459,0.153l-0.441,0.354
			l-0.246,0.1l0.117-0.607v-0.324l-0.408-0.758l-0.283,0.213l-0.473,0.197l-0.445,0.047l-0.197-0.256l-0.186-0.135l-1.25,0.691
			v-0.363l1.348-0.964l0.254-0.572l-0.793-0.616l-0.674,0.118l-0.361,0.77l-0.273,0.854l-0.41,0.41l-0.576,0.207l-1.795,1.17
			l-0.887,1.289l-0.352,0.301l-0.158-0.264l0.066-0.481l0.16-0.344l0.195-0.338l0.189-0.464l-0.484,0.113l-0.912,0.488l-0.54,0.118
			l-1.673-0.744l-0.462,0.024l-0.292,0.548l-0.472,1.618l-0.348,0.344l-0.126,0.407l0.111,0.919l0.339,1.54l-0.247,0.282
			l-0.194,0.974l-0.167,0.21l-0.28-0.257L96.97,17.27l-0.277-0.31L96.48,17.16l-0.576,1.265l-0.336,0.207l-0.296-0.037l-0.234,0.128
			l-0.151,0.745h0.185l-0.081,0.189l-0.302,0.526l-0.339-0.3l-0.336-0.062l-0.311,0.109l-0.25,0.253v0.392l1.125,1.427l0.666,0.673
			l0.875,0.369l-0.73,0.501l-0.392,0.157l-0.413,0.062L94.199,23.6l-0.28-0.31l-0.283-0.147l-0.386,0.294l0.373,0.977l0.54,1.073
			l0.693,0.754l0.845,0.044l0.021-0.162l0.01-0.335l0.049-0.363l0.124-0.234l0.154-0.057L96.6,25.19l0.401,0.188l0.326,0.925
			l0.395,0.338l-0.437,0.126l-1.166-0.219L95.7,26.996l-0.019,0.86l0.475,0.558l0.653,0.287l0.527,0.081v0.357l-0.613-0.01
			l-1.652-0.673l-1.397,0.271l-0.65-0.053l-0.585-0.606l-0.327,0.288l-0.395,0.544l-0.29,0.238l-0.363,0.09l-0.29-0.01l-0.219,0.126
			l-0.12,0.502l0.696,0.08l1.066,0.788l1.116,0.411l1.572,1.598l-0.549,0.292l-0.533-0.311l-0.478-0.616l-0.374-0.616l-0.342-0.138
			l-1.331,0.072l-0.462,0.219l0.561,0.572l2.075,0.525v0.327l-0.805-0.02l-1.556-0.526l-2.978-0.08l-0.755,0.299l-2.114,1.571
			l-0.333,0.392l-0.086,0.615l-0.228,0.383l-0.352,0.191l-0.432,0.052l-0.413,0.138l-0.068,0.339l0.201,0.369l0.382,0.245v0.317
			l-0.157,0.192L83.672,37.7l-0.064,0.191l-0.095,0.191l0.521-0.01l2.457,0.963l0.277,0.282l-0.234,0.511l0.512,0.344l2.247,0.006
			l0.595,0.438l0.375,0.106l0.318-0.714l0.348-0.138l0.721-0.043l0.182-0.085l0.312-0.229l0.194-0.043l0.238,0.08l0.03,0.201
			l-0.03,0.237l0.135,0.363l0.284,0.415l0.311,0.267l0.148-0.312l0.244-0.979l0.499-0.708h0.382l-0.095,1.143h0.207l0.437-0.482
			l0.371,0.448l0.086,0.745l-0.4,0.391l-0.562,0.154l-0.45,0.38l-0.718,0.873v0.326l0.428-0.109l0.419-0.263l0.401-0.348
			l1.383-1.559l0.755-0.391l0.758-0.998l0.447-0.229l0.428,0.152l0.204,0.376l-0.041,0.47l-0.305,0.457v0.316l0.616-0.335
			l1.079-0.901l2.021-0.345l0.592-0.317l0.568-0.546l0.061,0.163l0.02,0.037l0.029,0.01l0.09,0.109l-0.156,0.454l-0.34,1.671
			l-0.369-0.085l-0.227-0.188l-0.205-0.229l-0.322-0.21l0.088,1.283l-1.375,1.279l0.075,1.008l-1.621,1.39l0.388,0.481l0.434,0.209
			l0.983,0.044v0.382l-0.949,0.22l-1.338,0.945l-2.873,0.578l-0.881,0.454l-0.864,0.626l-0.024-0.316l-0.043-0.019l-0.117-0.047
			l-0.08-0.317l-0.216-0.562l-0.225-0.163l-0.105,0.88l-0.028,1.035l-0.086,0.411l-0.179,0.163l-0.487,0.172l-3.446,2.481
			l-0.856,0.249l-0.361,0.239l-0.296,0.338l-0.133,0.387l0.043,0.544l0.161,0.164h2.945l0.641,0.175l0.632,0.407l0.219,0.481
			l-0.592,0.373l-0.684-0.579l-0.37-0.139l-0.16,0.526l0.086,0.419l0.212,0.144l0.601-0.056l0.561,0.095l0.567,0.263l0.542,0.435
			l0.466,0.629l-2.087-0.401l-0.342,0.217l-0.179,0.247l-0.397-0.101l-0.657-0.318l-0.265,0.191l-0.342,0.608l-0.204,0.255v0.378
			h0.457l0.545,0.166l0.453,0.298l0.185,0.4l0.197,0.572l0.462,0.281l0.536,0.166l0.422,0.225v0.345l-0.964-0.037l-0.462,0.1
			l-0.395,0.329l-0.617-0.973l-0.342-0.336l-0.842-0.343l-0.184-0.501l-0.087-0.592l-0.173-0.479l-0.831-0.436l-1.81,0.369
			l-0.823-0.632l-0.61,0.497l-0.641,0.201h-1.462l-0.45-0.11l-0.666-0.481l-0.475-0.182l-0.512-0.319l-0.345-0.306l-0.154,0.099
			l-0.167,0.172l-0.207,0.073l-1.793-0.435l-1.005,0.115l-0.44,0.857l-0.204,1.352l-0.512,1.033l-0.66,0.681l-0.669,0.282
			l0.183,0.755l-0.043,0.725l-0.111,0.783l-0.028,0.927H73.15v-1.012l-0.24-0.778l-0.376-0.592l-1.437-1.324l-0.136-0.481
			l0.567-0.397v-0.381l-0.645-0.329v-0.348l0.167-0.25l0.077-0.363l-0.046-0.42l-0.197-0.399l-0.062,0.145l-0.305,0.111
			l-0.531,0.101l-0.147-0.228l-0.244-0.965l-0.219-0.229l-0.262-0.025L67.787,55.8l-0.364-0.062l-0.274,0.225l-0.225,0.301
			l-0.342,0.281l-0.36,0.2l-0.29,0.082l-2.354-0.357l-0.234-0.15l-0.407-0.456l-0.262-0.091l-0.33,0.065L61.789,56.1l-0.327,0.054
			l-5.095-0.382l-0.57-0.163l-1.128-0.727l-0.628-0.165l-1.732,0.481l-0.062,0.382l0.179,0.738l0.317,0.526l1.557,0.354l0.552,0.335
			l-0.648-0.145l-0.28,0.019l-0.287,0.126v0.356l0.607,0.351l0.231,0.281l0.175,0.444l-0.659-0.106l-1.036-0.788l-0.642-0.182
			l-0.456,0.307l-0.477,0.726l-0.188,0.826l0.4,0.619l-0.437,0.282l-0.394,0.569l-0.408,0.376l-0.487-0.348l-0.539-0.254
			l-0.703-0.044l-0.459-0.312l0.185-0.994l0.752,0.706l0.74,0.101l0.704-0.582l0.662-1.279l-0.145-0.038l-0.031-0.047v-0.069
			l-0.046-0.175l-0.29,0.244h-0.262l-0.241-0.216l-0.222-0.397l-0.416,0.298l-0.527-0.062l-0.511-0.273l-0.382-0.318l-0.105-0.254
			l-0.043-0.335l-0.064-0.3l-0.176-0.176l-0.296,0.032l-0.124,0.196l-0.067,0.267l-0.121,0.215l-1.31,0.779l-0.327,0.301
			l-0.24,0.607l-0.164,0.676l-0.268,0.469l-0.562,0.013l0.333,0.451l0.376,0.193l0.924,0.025l-0.342,0.626l-0.336,0.338l-0.25,0.426
			l-0.102,0.916l-0.148,0.592l-0.672,1.461l-0.172,0.61l0.043,0.98l0.271,0.515l0.444,0.21l0.549,0.047l0.512-0.199l-0.068-0.457
			l-0.367-0.47l-0.392-0.276l0.576-0.334l0.256-0.016l-0.074-0.981l-0.148-0.301l-0.389-0.153v-0.317l0.635-0.365l0.364-0.082
			l0.419,0.065v-0.356l-0.136-0.172l-0.268-0.525l0.57,0.135l0.493-0.207l0.167-0.438l-0.419-0.544l0.434-0.535l0.675,0.264
			l1.541,1.326l-0.191,0.425l-0.277,0.22l-0.345-0.009l-0.407-0.282l1.026,1.17l0.376,0.611l-0.194-0.119l-0.406-0.135l-0.192-0.128
			l0.17,0.609l0.361,0.488l0.906,0.688l-0.537,0.311l-1.338,0.41l-0.573-0.027l0.598,1.341l0.749,0.63l0.836-0.172l0.854-1.09
			h-0.201v-0.356l0.309-0.053l0.154-0.065l0.037-0.188l-0.077-0.43l0.77-0.263l0.342,0.019l0.284,0.244l-0.826,0.735L52,67.414
			l-0.389,0.216l-0.255,0.311l0.003,0.301l0.418,0.181l-0.344,0.463l-0.395,0.125l-0.321,0.238l-0.136,0.764l0.099,0.761
			l0.216,0.415l0.216,0.282l0.095,0.319l0.102,0.182l0.499-0.062L52,71.945l0.142,0.254v0.209l-0.021,0.244l0.348,1.271l0.204,0.372
			l0.339,0.128l-0.185-0.383v-0.318l0.413,0.062l0.283,0.301l0.241,0.375l0.277,0.308l-0.117,0.606l0.049,0.557l0.009,0.417
			l-0.253,0.162l-0.345-0.272l-0.12-1.198l-0.345-0.271l-0.407-0.102l-0.66-0.487l-0.259-0.139l-1.417,0.383v0.345h0.222v0.317
			l-0.096,0.354l0.01,0.216l0.086,0.477L49.9,76.502l-0.182,1.427l-0.37,0.29l0.978,1.061l1.605-0.387l2.919-1.684l4.232,0.019
			l0.851,0.328l0.163-0.171l0.114-0.092l0.132-0.048l0.197-0.036l-0.065,0.476l-0.129,0.388l-0.179,0.319l-0.234,0.206l0.545,0.329
			l0.244,0.019l-1.03,0.86l-0.314,0.463l0.13,0.419v0.345l-0.191,0.038l-0.136,0.09l-0.124,0.12l-0.157,0.096l1.193,0.62
			l0.447,0.072v0.381l-5.508,1.018l-0.327-0.153l-0.604-0.391l-0.172,0.019l-0.303,0.324l-0.32,0.11l-0.703,0.091l-0.801,0.31
			l-1.125,0.21l-0.281,0.199l0.265,0.927l-0.185,0.79l-0.327,0.825l-0.179,1.089l0.426,2.263l2.407,1.505l1.292,0.51l2.065-0.181
			l0.512,0.271v0.32l-2.321-0.163l-1.42-0.256l-0.623-0.463L52,91.497l-0.4,0.034l-1.017,0.653l-0.845,0.239l-2.312-0.239
			l-1.131,0.265l0.441,0.606l1.8,1.236l-0.312,0.2l-0.416,0.635l-0.28,0.137l-0.441-0.78l-0.166-0.191l-1.335-0.364l-1.316-0.015
			l0.059,0.234l0.095,0.572l0.065,0.225l-0.746-0.037l-0.715-0.225l-0.693-0.019l-0.685,0.6l0.292,0.282l0.349-0.037l0.863-0.245
			l0.284,0.265l0.247,0.572l0.167,0.598l0.031,0.318l0.616,0.727l1.122,0.488l1.116,0.228l0.586-0.062l-0.25,0.563L46.47,98.85
			l-0.727-0.338l-0.648-0.116l0.164,0.463l0.225,0.335l0.284,0.191l0.342,0.047v0.369l-0.447,0.494l-0.45,0.062l-1.128-0.237
			l-0.623,0.081l-0.435,0.311l-0.317,0.544l-0.265,0.816l0.549-0.006l0.24-0.113l0.24-0.225l0.425,0.482l0.712,0.071l1.193-0.21
			l0.413,0.147l0.216,0.353l0.181,0.454l0.306,0.417l0.342,0.213l0.385,0.096l1.178-0.015l0.502-0.238l0.336-0.056l0.32-0.188
			l-0.012-0.477l-0.086-0.56l0.086-0.491l0.336-0.326l0.269,0.033l0.25,0.186l0.271,0.107l0.293-0.125l0.203-0.283l0.229-0.256
			l0.379-0.054l-0.25,0.5l-0.585,0.419l-0.157,0.453l0.167,0.564l0.456,0.053l0.391-0.253l-0.021-0.364l0.663-0.516l0.333-0.138
			h0.44v0.344l-0.625,0.31v0.382h1.03v0.31l-0.444,0.417l-1.208,0.835l-0.5,0.156l-0.397,0.006l-0.262,0.076l-0.207,0.2
			l-0.102,0.369l-0.062,0.562l-0.148,0.646l-0.129,0.199l0.459,0.325l1.297-0.297l0.579,0.497l0.493,0.591h0.484l1.402-0.645
			l0.462-0.578l0.709-1.302l0.32-0.798l0.241-0.382l0.357-0.162l0.41-0.535l0.182-0.183l0.129,0.081l0.123,0.189l0.173,0.1
			l0.019,0.394l-0.302,0.89l-0.136,0.944l0.53,0.55l0.567-0.225l0.265-0.734l-0.058-0.873l-0.389-0.598l0.447-0.311l0.524-0.091
			l1.072,0.054l-1.113,0.656l-0.323,0.382l1.199,1.189l-0.077,0.182l-0.092,0.106l-0.194,0.476l-0.117,0.106l-0.212-0.054
			l-0.296-0.209l-0.099-0.058l-0.592,0.438l0.247,2.271l-0.573,1.034v0.381l0.478,0.601l0.459-0.081l0.345-0.639l0.133-1.089
			l0.277-0.917l0.5-0.019l0.213,0.582l-0.564,0.873l0.392,0.426l0.259,0.488l0.339,0.463l0.629,0.301l1.239,0.013l0.659-0.186
			l0.438-0.335l0.937-0.472l9.624-0.811l1.029-0.47l0.598-0.1l2.354,0.335v0.347l-0.391,0.2l-0.768,0.234l-0.274,0.254v0.307h0.83
			v0.347l-0.586,0.035l-1.341,0.348l-0.523,0.335l0.422,0.21l2.928,0.1l0.256-0.065l0.551-0.235l0.315-0.009l-0.993,0.745
			l-0.469,0.544l-0.378,0.763l0.201,0.31l0.142,0.373l0.265,1.026l-0.435-0.1l-0.367-0.201l-0.321-0.31l-0.296-0.416l0.16-0.482
			l-0.234-0.056l-0.339,0.156l-0.339,0.389l-0.382-0.062l-0.687-0.317v0.373l1.232,0.717v0.31l-0.576-0.074l-0.9-0.764l-0.465-0.188
			l-1.738,0.344v0.373l1.3,0.429l0.422,0.451l-0.083,0.801l-0.706-0.426l-0.66,0.169l-0.613,0.4l-0.564,0.228l-0.647-0.29
			l-1.393-1.346l-0.697-0.416l-0.632,0.263l-0.515,0.873l-0.407,1.071l-0.494,0.834l-0.644,0.71l-1.584,3.079l0.219,0.331
			l-0.321,0.229l-0.284,0.354l-0.875,1.507l-0.351,0.465l-0.838,0.854l0.782,0.282l2.327-0.119l0.555,0.182l-0.33,0.964
			l-1.847,1.805l-0.052,0.665v0.338l-0.244,0.215l-0.114,0.31l-0.096,0.389l-0.169,0.447l-0.278,0.444l-0.301,0.41l-0.321,0.315
			l-0.318,0.182l0.223,0.372l-0.083,0.345l-0.077,0.062l0.003,0.03l0.157,0.208l-0.223,0.463l-0.098,0.563l-0.12,0.472l-0.287,0.2
			l-0.33,0.053l-0.555,0.258l-0.333,0.062l-0.928-0.119l-0.385,0.119l-0.283,0.153l-0.426,0.363l-0.32,0.152l0.123,0.491l0.077,0.19
			l-6.004,5.868l-1.525,0.416l-1.264,0.92l-0.537,0.262v0.302l5.299-0.758l0.789-0.589l0.219,0.082l0.271,0.183l0.225-0.082
			l0.096-0.689l0.277-0.562l0.641-0.3l1.313-0.291l2.244-1.073l-0.126-0.389l-0.188-0.294l-0.237-0.207l-0.277-0.1v-0.338
			l1.082-0.025l0.327,0.282l-0.154,0.763l0.4,0.416l1.014,0.147l0.204,0.282l0.246,0.435l0.573,0.253l0.644,0.129l1.507-0.066
			l2.167-0.698l0.937-0.59l0.009,0.672l-0.491,0.51l-0.65,0.444l-0.471,0.426l0.308,0.22l0.355,0.138l0.373,0.043l0.363-0.062
			l0.299-0.21l0.472-0.664l0.15-0.134l2.642-0.31l0.561-0.311l2.626-3.614l0.961-1.853l0.064-0.644l0.693-0.66l0.931-0.521
			l0.776-0.21l-0.228,0.282l-0.327,0.644l-0.252,0.401l0.456,0.182l0.074,0.517l-0.043,0.592l0.124,0.434v0.338l-0.379,0.346
			l0.037,0.306l0.33,0.238l0.506,0.091l1.932-0.311l0.98,0.21l1.933,0.792l0.542,0.006l-1.005,0.345l-5.194,0.682l-0.323,0.183
			l-0.238,0.428l-0.188,0.455l-0.169,0.279l-0.435,0.207l-0.604,0.129l-0.539-0.129l-0.243-0.545l-0.542,0.383l-3.61,1.17
			l-0.425,0.312l-0.401,0.426l-0.483,0.201l-1.055,0.216l-1.893-0.044l-0.425,0.209l-0.247-0.074l-2.367-0.091l-0.241,0.047
			l-0.191,0.153l-0.215,0.316l-0.296,0.237l-0.302-0.101l-0.271-0.206l-0.234-0.112h-2.358l-1.214-0.335l-0.311,0.118l-0.241,0.234
			l-0.188,0.139l-0.164-0.156l-0.696,0.863l-0.111,0.356l0.071,0.589l-0.052,0.282l-0.241,0.299v0.335l0.179,0.254l0.052,0.256
			l-0.062,0.254l-0.17,0.254l0.493-0.054l0.475,0.091l0.346,0.335l0.123,0.664l-0.5-0.263l-0.771-0.211l-0.777-0.019l-0.505,0.31
			l-0.441,0.674l-0.397,0.344l-2.95,1.398l-2,0.129l-0.567,0.206l-0.444,0.464l0.54,0.6l0.83,0.407l1.565,0.301l0.493,0.501
			l-0.092,2.405l0.327,0.817l-0.755,0.3l-0.293,0.006v0.363l0.253,0.038l0.194,0.075l0.379,0.225l-0.45,0.219h-0.309l-0.277-0.199
			l-0.361-0.357l0.065,0.457l0.117,0.372l0.167,0.297l0.221,0.248l0.447-0.335l0.443,0.12l0.968,0.55l0.935,0.019l0.422,0.128
			l0.468,0.491l-2.148,0.307l-0.487-0.307l0.185-0.181l0.203-0.147l-0.363-0.163l-0.345,0.197l-0.617,0.82l-0.418,0.243
			l-1.233-0.018l-0.999-0.226l-0.91-0.438l-0.484-0.088l-0.425-0.248l-0.124-0.615l-0.018-0.763l-0.139-0.721l0.139-0.507
			l-0.333-0.182l-1.042,0.02l0.709,0.951l-0.262,1.025l-0.789,0.893l-0.87,0.516l-1.941,0.301l-0.059-0.288l0.357-1.871l-0.465-0.4
			l-3.082,0.917l-0.333,0.229l-0.653,1.062l-0.342,0.353l-0.567,0.139l-0.444-0.02l-0.352,0.19l-0.277,0.754l0.13,0.072l0.296,0.234
			l-0.346,0.43l0.013,0.363l0.102,0.334l-0.08,0.391l-0.299,0.182l-0.37-0.134l-0.657-0.557l0.219-0.67l-0.558,0.171l-0.638,0.354
			l-0.346,0.445l0.309,0.399v0.301l-0.548,0.517l-0.259,0.152l0.261,0.973l0.053,0.836l0.201,0.59l0.718,0.275l0.629-0.121
			l1.177-0.562l0.641-0.019l-0.308-0.153l-0.089-0.153l-0.025-0.329h0.694l1.412,0.498l0.745,0.138v-0.301l-0.487-0.263
			l-0.247-0.072H38.58v-0.31l0.829-0.263l0.333,0.028l0.758,0.792l0.225-0.139l0.197-0.29l0.308-0.129l0.309,0.292l0.295,0.472
			l0.321,0.292l0.709-0.454l3.983-1.017l0.899,0.053l0.425,0.128l0.389,0.2l0.287,0.335l0.179,0.788l0.132-0.216l0.191-0.563
			l-0.389-1.007l5.891-0.329l-1.033,0.664l0.163,0.144l0.255,0.339l0.21,0.189l-2.207,0.301l-0.927-0.047l-0.916-0.563l-0.629,2.889
			l0.098,0.454l-0.419,0.019l-0.413-0.09l-0.277-0.383l0.003-0.88h-0.225l-0.635,1.663l-1.208,0.727l-2.811,0.615l-1.89,0.908
			l-0.755,0.538l-0.833,0.182l-0.616,0.325l0.228,0.706l-0.357,0.201l-0.733,0.276l-0.345,0.224v0.302l0.561,0.071l0.295,0.482
			l0.256,0.545l0.425,0.262l0.105,0.147l0.016,0.334l-0.096,0.329l-0.237,0.15h-0.518l-2.459,0.901l-0.98,0.125v0.338l0.099,0.01
			l0.204-0.029l0.102,0.02l-0.022,0.237l-0.055,0.126l-0.062,0.118l-0.062,0.182l0.04,0.025l0.078,0.012l0.067,0.062l0.016,0.227
			l-0.204,0.537l0.385,0.089l0.598-0.054l0.438,0.1l0.185,0.646l-0.352,1.417l0.167,0.615l0.45-0.28l0.918-0.88l0.361-0.194
			l0.342-0.263l0.74-1.16l0.345-0.263l1.196,0.572l0.508,1.245l-0.268,1.16l-1.134,0.364l2.808,1.343l-0.176,0.644l0.721-0.234
			l0.792-0.481l0.747-0.617l0.594-0.653l0.672,0.363l0.684-0.302l1.294-1.054l0.349-0.115l0.708-0.109l0.361-0.139l0.179-0.2
			l0.166-0.263l0.247-0.199h0.418l-0.055,0.245l-0.086,0.556l-0.062,0.225l0.326-0.081l0.888-0.583l-0.179-0.361l0.456-0.15h0.978
			l0.182-0.32l0.25-0.311l0.564-0.352l3.113-1.209l2.148-0.281v0.363l-0.943,0.325l-1.735,1.001l-0.968,0.301l-0.777-0.065
			l-0.231,0.065l-0.157,0.206l-0.346,0.645l-0.585,0.338l-0.758,0.898l-0.401,0.262v0.302l0.592,0.292l0.234,0.043v0.325
			l-1.134,0.031l-0.518-0.082L52,182.837l-0.065,0.807l-0.335,0.481l-0.493,0.258l-0.524,0.105l0.154-0.263l0.161-0.507l0.089-0.219
			l-0.78,0.199l-1.024,0.508l-0.93,0.738l-0.506,0.87h1.214v0.363l-1.393,1.37l-0.647,0.281l-1.209-0.105l-0.641,0.134l-0.379,0.598
			l0.459-0.024l0.432,0.138l0.24,0.345l-0.117,0.597l0.093,0.047l0.068-0.009l0.043,0.053l-0.006,0.211l-0.45,0.29l-2.022,0.563
			l-0.179,0.134l-0.105,0.266l-0.013,0.297l-0.055,0.267l-0.228,0.164l0.197,0.361l0.518-0.537l0.672-0.307l1.363-0.176l0.302,0.056
			l0.583,0.245l0.339,0.057l0.715-0.582l1.865-0.62l0.167-0.116l0.099-0.162l0.025-0.19l0.006-0.176l0.053-0.135l0.435-0.344
			l1.227-0.563l3.742-0.535l1.023-0.444l1.938-0.209l0.626-0.201l0.58-0.371l0.823-0.864l0.404-0.301l0.598-0.162l-0.317-0.526
			l-0.022-0.419l0.043-0.445l-0.129-0.625l0.302,0.1l0.29,0.182l0.253,0.21l0.188,0.197l0.028,0.194l-0.056,0.615l0.027,0.191
			l0.117,0.062l0.256-0.019l0.685,0.544l0.502-0.199l0.459-0.282l0.432,0.22v0.3l-0.139,0.144l-0.133,0.281l-0.136,0.239
			l-0.061,0.787l-0.869,0.392l-1.092,0.267l-1.104,0.588l-0.967,0.125l-0.401,0.64l-3.656,2.004l-1.158,0.417l-0.265,0.456
			l-0.209,0.451l-0.287,0.214l-0.274,0.115l-1.254,0.845l1.856-0.163l5.724-2.95l1.369,0.134l-0.62,0.417l-1.069,0.494l-0.558,0.443
			l-1.297,1.509l-0.524,0.444l-0.65,0.326l-1.039,0.281l-0.539,0.381l-1.058,1.08l-0.539,0.382l-0.65,0.209l0.228,0.464l0.124,0.105
			l0.258,0.095v0.3l-0.107,0.197l-0.056,0.229l-0.04,0.616l0.203-0.363l0.204,0.363l0.851-0.797l0.265-0.091l-0.086,0.524
			l2.022-0.979l-0.129-0.048l-0.08-0.072l-0.191-0.218l1.619-1.489l0.2-0.426l0.416,0.244l0.361,0.538l0.037,0.482l0.505,0.006
			l0.336-0.145l0.573-0.554l0.201-0.028l0.524,0.038l0.104-0.156l0.04-0.47l0.118-0.2l2.099-0.477l0.85-0.406l-0.253-0.581
			l0.395-0.188l0.536,0.088l0.481,0.263l0.207,0.301l-0.117,0.691l-0.197,0.534l-0.04,0.464l0.354,0.491l0.619-0.554l0.278-0.339
			l0.114-0.281l0.946-0.578l0.253-0.254l0.068,0.162l0.031,0.054l0.034,0.029l0.089,0.104l-0.37,0.367l-0.727,0.497l-0.324,0.429
			l-0.268,0.66l0.117,0.166l0.352-0.166l0.425-0.297l-0.191,0.479l-0.222,0.338l-0.271,0.256l-0.345,0.244l0.956-0.019l0.413-0.145
			l0.345-0.337l0.25-0.173l0.231,0.009l0.172-0.062l0.062-0.428l0.813-0.526l0.062,0.264l0.08,0.2l0.062,0.215l0.016,0.338
			l0.345-0.181l0.275,0.081l0.268,0.145l0.327-0.045l0.237-0.299l0.148-0.401l0.203-0.301l0.425-0.016v-0.3l-0.085-0.481
			l0.237-0.072l0.767,0.199l0.456-0.09l0.444-0.267l0.376-0.416l0.235-0.544l-0.253-0.235l-0.135-0.074v-0.354l0.376,0.101
			l0.666,0.416l0.379,0.147l1.636-0.363l0.44-0.263l0.352-0.038l0.33,0.109l0.592,0.445l0.203,0.109l0.078,0.2l0.25,0.353
			l0.265,0.12l0.123-0.52l0.167-0.101l1.048-0.362l0.281-0.564l0.311-0.831l0.419-0.557l0.61,0.275l0.197-0.238l0.192,0.027
			l0.228,0.135l0.312,0.076h1.094l0.241,0.206l0.21,0.318l0.216,0.191l0.255-0.2l1.125,0.146l-0.139-0.557l0.034-0.435l0.185-0.363
			l0.324-0.301l-0.607-0.297l0.191-0.194l0.197-0.135v-0.361h-1.085l-0.5-0.192l-0.425-0.472l3.544,0.362l1.454-0.409l0.487,0.047
			l0.416,0.335l0.423,0.973l0.375,0.344l-0.056-0.554l-0.135-0.726l-0.031-0.535l0.08-0.3l0.456-1.154l0.185-0.054l0.247-0.135
			l0.203-0.22l0.065-0.28l-0.139-0.374l-0.179,0.054l-0.271,0.32l-0.315-0.12l-0.604-0.062l-0.296-0.181v-0.301l1.362,0.019
			l0.632,0.354l0.213,0.98l0.441-0.27l0.145-0.539l-0.151-0.563l-0.435-0.344l0.354-0.119l0.478,0.191l0.419,0.41l0.185,0.545
			l0.388-0.554l0.364-0.273l1.112-0.282l0.799-0.443l0.324-0.511l0.98-1.117l0.129-0.382l-0.064-0.27l-0.124-0.236l-0.043-0.272
			l0.093-0.182l0.515-0.811h-1.033l0.191-0.144l0.191-0.11l0.431-0.109l-0.126-0.071l-0.262-0.229v-0.361h0.203v-0.299l-0.346-0.109
			l-1.109,0.109l0.536-1.536l-0.737-0.562l-1.242-0.181l-0.989-0.383l0.607-0.35l0.604-0.076l1.221,0.062l0.549-0.162l0.549-0.264
			l0.505-0.125l0.256,0.252v0.299l1.217-0.035l0.601,0.13l0.391,0.269l0.253-0.369l0.234-0.156l0.197,0.108l0.145,0.417
			l-0.244,0.166l-0.148,0.21l-0.218,0.625l0.286,0.019l0.186,0.088l0.154,0.118l0.184,0.102l-0.375,0.456l-0.4,0.287l-0.417,0.177
			l-0.428,0.081l0.136,0.463l0.067,0.17l-0.271,0.08l-0.263,0.165l-0.2,0.255l-0.077,0.343l0.129,0.177l0.299,0.034l0.339-0.028
			l0.817,0.082l1.867-0.188l1.129-0.457l2.244-0.469l0.484-0.292l-0.562-0.673l0.443-0.588l1.555-0.7l1.232-0.272l0.672-0.301
			l0.326-0.491l-0.359-0.134l-0.879-0.826l0.627-0.047l0.502-0.308l0.424-0.51l0.393-0.645l0.078-0.415l0.029-1.166l0.094-0.243
			l0.338,0.207l0.133,0.447l0.045,0.443l0.094,0.211l3.145,0.425l0.174-0.244l-0.008-0.5l0.25-0.684l0.615-0.315l1.576,0.172
			l0.561-0.338l0.246-0.197l0.293-0.064l0.25-0.101l0.105-0.332l0.109-1.483l0.938-0.697l0.174-0.598l-0.051-0.213l-0.217-0.044
			l-0.883-0.405l-0.541-0.158l-0.455,0.075l-0.289,0.369l-0.111-0.798l0.357-0.646l0.564-0.436l0.514-0.154l0.096,0.143l0.084,0.33
			l0.129,0.334l0.203,0.194l0.299-0.057l0.162-0.239l0.107-0.248l0.145-0.119l1.1-0.258l2.041-1.127l5.684-0.625l1.123,0.281
			l0.553-0.008l0.588-0.273l0.189-0.254l0.143-0.334l0.201-0.291l0.359-0.119l0.24,0.047l0.383,0.234l0.309,0.053l-0.105-0.206
			l-0.064-0.176l-0.084-0.145l-0.168-0.143v-0.301l0.41-0.057l0.369,0.065l0.652,0.292l-0.834,1.151l-0.176,0.544l0.637-0.162
			l1.338-0.044l0.658-0.156l0.514-0.407l0.861-1.202l0.467-0.396v-0.328l-0.738,0.012l-0.068-0.481l0.383-1.208l-0.105-0.481
			l-0.406-0.819l-0.096-0.236l-0.023-0.491l-0.199-1.352l0.373,0.52l0.439,1.533l0.328,0.325l0.318,0.176l0.342,0.398l0.293,0.462
			l0.172,0.328l0.512,1.997l-0.006,0.481l-0.332,0.372l-0.377,0.248l-0.352,0.315l-0.277,0.598l0.5,0.31l0.406-0.409l0.332-0.607
			l0.301-0.319l2.148-1.342l-0.223-0.328l0.1-0.007l0.205,0.019l0.1-0.012v-0.37l-0.201,0.025l-0.203-0.025l0.215-0.31l0.094-0.281
			l0.096-0.717h-0.182l-0.105,0.134l-0.32,0.229l0.08-0.356l-0.006-0.154l-0.043-0.161l-0.031-0.392l0.203-0.301l0.58,0.275
			l0.584-0.256l0.498-0.517l0.361-0.51l-0.059,0.764l-0.299,0.619l-0.428,0.426l-0.449,0.2v0.362l0.572,0.146l2.096-0.326
			l2.201,0.683l0.543,0.287l0.771,0.845l0.514,0.062l1.256-0.751l1.42-0.3l0.502-0.356l0.307-0.007l0.402,0.363h-0.604v0.3
			l1.291-0.013l0.084-0.043l0.055-0.091l0.361-0.316l0.258-0.382l0.176-0.101l0.35,0.044l0.039,0.22l-0.266,0.6l-0.221,0.227
			l-0.062,0.253l0.383,0.301l0.279,0.053l0.217-0.08l0.295-0.301l0.381-0.545l0.852-2.135l-1.525-1.557l-0.59-1.127l0.494-1.027
			v-0.31l-0.707,1.208l-0.367,0.435l-0.158-0.519l-0.273-0.398l-0.926-0.215l0.186-0.511l-0.219-0.644l-0.336-0.549l-0.416-0.378
			l-0.447-0.173v-0.3l0.229-0.238l0.24-0.188l0.26-0.147l0.266-0.101l-0.174,0.88l0.615,0.2l1.725-0.134l0.268,0.099l0.234,0.229
			l0.203,0.37l0.055-0.651l-0.055-0.862l0.021-0.889l0.275-0.774l0.684-1.253l0.457-0.665l0.498-0.281l0.533-0.663l1.801-3.022
			l0.391-0.852l0.082-2.114l-0.082-0.765l-0.307-1.407l-0.035-0.727l0.158-0.938l1.387-2.513l0.609-1.462l-0.172-1.101l0.701-2.36
			l0.328-0.716l0.346-0.473l1.273-1.226l-0.221-0.374l1.006-2.368l0.33-0.356l0.152-0.207l0.295-0.936l0.16-0.219l0.381-0.172
			L166.406,124.312z M62.723,198.626l-0.816,0.538l-0.266,0.445l0.022,0.1L61.841,200l0.176-0.066l0.212-0.362l0.108,0.065
			l0.219,0.028l0.37-0.194l0.265-0.369l-0.009-0.444L62.723,198.626z"/>
	</g>
</g>
</svg>
