<svg xmlns="http://www.w3.org/2000/svg" baseProfile="tiny" viewBox="0 0 32 32">
<g>
	<g>
		<path fill="#FFFFFF" d="M13.822,22.148l9.922-5.714c0.156-0.089,0.252-0.255,0.252-0.434c0-0.18-0.096-0.345-0.252-0.435
			l-9.922-5.714c-0.156-0.09-0.348-0.09-0.504,0c-0.154,0.09-0.25,0.255-0.25,0.434v2.66H4.504C4.227,12.945,4,13.171,4,13.448
			v5.103c0,0.277,0.227,0.502,0.504,0.502h8.564v2.66c0,0.18,0.096,0.346,0.25,0.436c0.079,0.045,0.166,0.066,0.252,0.066
			C13.657,22.215,13.745,22.193,13.822,22.148z M24.284,4H14.037c-0.277,0-0.504,0.226-0.504,0.502v1.504
			c0,0.277,0.227,0.502,0.504,0.502h10.247c0.661,0,1.199,0.536,1.199,1.197v16.589c0,0.658-0.538,1.195-1.199,1.195H14.037
			c-0.277,0-0.504,0.225-0.504,0.502v1.506c0,0.275,0.227,0.502,0.504,0.502h10.247C26.333,28,28,26.336,28,24.295V7.706
			C28,5.662,26.333,4,24.284,4z"/>
	</g>
</g>
</svg>
