<svg xmlns="http://www.w3.org/2000/svg" baseProfile="tiny" viewBox="0 0 200 170">
<path fill="#F4F4F4" d="M198.597,40.439c-2.134-5.016-6.52-8.848-13.035-11.384c-5.998-2.337-13.677-3.521-22.82-3.521
	c-15.578,0-34.557,3.493-54.312,9.839C83.889,13.572,59.009,0,42.037,0c-5.98,0-10.833,1.657-14.424,4.925
	c-8.281,7.538-8.633,22.647-1.037,42.637l-13.475-4.724v13.06v35.659c-11.408,12.905-15.557,24.739-11.693,33.83
	c2.134,5.019,6.52,8.849,13.036,11.387c5.999,2.335,13.675,3.519,22.819,3.519c4.328,0,8.92-0.273,13.715-0.798
	c-0.252,1.647,0.007,3.377,1.523,5.239c3.341,4.077,8.811,1.904,12.425,0.773c-1.395,3.61-4.38,7.5-0.545,11.862
	c3.83,4.391,12.679,2.357,17-1.794c4.31-4.15,4.725-10.729,0.933-14.665c-2.618-2.703-6.519-3.33-10.119-2.194
	c0.388-1,0.625-2.034,0.72-3.065c3.924-0.918,7.917-1.965,11.956-3.142c1.213,0.743,2.336,1.638,3.339,2.669
	c4.042,4.18,5.476,9.847,4.606,15.315c0.008,0,0.021,0,0.026,0.014c0.066,0.086,2.505,2.822,4.023,4.366c2.98,3,7.845,3,10.834,0
	c1.339-1.356,2.07-3.094,2.203-4.871C127.711,162.618,144.526,170,157.042,170c5.981,0,10.832-1.657,14.424-4.925
	c8.483-7.724,8.649-23.389,0.468-44.112c-2.056-5.208-4.582-10.596-7.522-16.087c3.938,0.84,7.752-0.296,9.312-0.495
	c2.327-0.294,13.613-2.532,13.613-2.532V73.779c1.878-2.151,3.562-4.286,5.042-6.39C199.585,57.145,201.735,47.826,198.597,40.439z
	 M126.806,110.076c0.183-0.186,0.749,0.096,1.55,0.676c-0.378,0.188-0.755,0.376-1.136,0.563
	C126.825,110.674,126.654,110.229,126.806,110.076z M117.7,77.478c0,0-5.053-5.063-11.714-2.121
	c-4.675,2.062-10.695,4.872-15.225,7.019c-4.978,2.628-8.559,3.44-10.241,3.429c-9.622-0.062-17.429-7.848-17.429-17.526
	c0-0.666,0.041-1.322,0.112-1.968c0.269-1.875,0.713-3.424,1.198-4.673c0.612-1.484,1.427-2.861,2.404-4.108
	c5.97-3.117,12.206-6.083,18.638-8.854c7.333-3.159,14.701-5.957,21.97-8.369c0.14,0.126,0.277,0.251,0.415,0.378
	c-10.316,5.755-23.647,13.385-31.083,17.921c-3.83,2.157-6.509,5.089-6.509,9.413c0,5.572,7.132,12.887,15.737,8.276
	c4.551-2.225,15.449-7.941,22.801-11.844c8.008-4.256,12.995,0.671,12.995,0.671s20.163,20.182,31.559,31.419
	c-3.33,2.172-6.801,4.303-10.385,6.38C122.469,82.308,132.82,92.731,117.7,77.478z M30.53,8.174
	c2.766-2.518,6.638-3.795,11.506-3.795c9.824,0,23.426,5.283,38.297,14.876c7.714,4.978,15.557,10.941,23.319,17.704
	c-3.818,1.307-7.655,2.716-11.498,4.226c1.313-0.715,2.111-1.142,2.111-1.142s-4.87-6.211-15.536-6.211
	c-10.662,0-32.938,14.691-32.938,14.691s-5.597,3.607-13.763,0.973c-0.288-0.695-0.571-1.386-0.844-2.075
	C23.833,28.792,23.594,14.489,30.53,8.174z M37.263,135.915c-17.183,0-28.497-4.35-31.854-12.25
	c-2.765-6.5,0.024-15.396,7.693-25.28v0.101v5.107c0,0,4.958,1.443,9.414,3.274c1.006-2.888,2.629-5.555,4.882-7.757
	c7.39-7.086,19.641-7.158,26.365-0.192c2.025,2.119,3.438,4.648,4.16,7.441c2.71,0.844,5.163,2.334,7.136,4.38
	c2.031,2.104,3.439,4.646,4.167,7.427c2.708,0.84,5.157,2.337,7.137,4.385c1.869,1.941,3.207,4.222,4.001,6.691
	c-2.696,0.742-5.365,1.428-8.003,2.052c-0.417-1.106-1.049-2.137-1.916-3.033c-2.414-2.487-5.937-3.143-9.297-2.367
	c0.94-3.355,0.42-6.924-2.004-9.446c-2.42-2.48-5.939-3.146-9.298-2.365c0.933-3.351,0.415-6.919-2.012-9.432
	c-3.803-3.926-10.377-3.758-14.697,0.388c-4.298,4.15-7.051,11.67-3.216,16.097c3.829,4.404,8.229,1.726,11.582,0.957
	c-0.933,3.349-3.729,6.465-0.285,10.847c3.438,4.388,8.227,1.727,11.585,0.963c-0.096,0.339-0.208,0.678-0.331,1.018
	C47.122,135.576,42.027,135.915,37.263,135.915z M168.548,161.826c-2.766,2.52-6.637,3.796-11.506,3.796
	c-9.823,0-23.426-5.283-38.299-14.877c-4.68-3.02-9.406-6.403-14.136-10.107c-3.104-3.409-7.353-8.288-6.799-8.85
	c0.85-0.859,14.408,13.339,14.661,13.598c2.976,2.996,7.836,2.996,10.824,0c2.982-3,2.976-7.889,0-10.896
	c-0.146-0.141-0.757-0.729-0.982-0.963c0,0-7.278-6.524-10.715-10.385c0.565-0.231,1.128-0.463,1.693-0.7
	c5.171,4.041,14.341,12.649,14.361,12.649c3,2.722,7.624,2.702,10.512-0.206c2.809-2.828,2.869-7.302,0.379-10.313
	c-0.032-0.105-5.152-5.512-8.634-9.708c0.693-0.344,1.382-0.687,2.07-1.034c3.836,3.527,8.38,8.237,8.396,8.254
	c2.969,2.996,7.836,2.996,10.824,0c2.976-2.994,2.976-7.887,0-10.911c-0.04-0.022-0.094-0.052-0.133-0.078
	c-1.796-1.807-3.433-3.454-4.94-4.971c3.578-2.097,7.04-4.245,10.364-6.432c4.66,7.859,8.508,15.559,11.402,22.889
	C175.246,141.208,175.485,155.513,168.548,161.826z M187.337,66.891V48.755c0,0-16.694,3.765-27.34,6.03
	c-4.335,0.918-7.052-1.364-7.052-1.364s-8.335-7.227-17.699-15.156c-2.284-1.937-4.24-3.265-6.013-4.102
	c12.137-2.773,23.549-4.248,33.508-4.248c17.185,0,28.496,4.349,31.856,12.25c3.174,7.465-1.386,16.463-5.769,22.695
	C188.355,65.534,187.856,66.211,187.337,66.891z"/>
</svg>
