<svg xmlns="http://www.w3.org/2000/svg" baseProfile="tiny" viewBox="0 0 200 200">
<path fill="#FFFFFF" d="M49.539,55.212l0.046-0.014l0.028,0.064l-0.035-0.15l-0.042-0.035l-0.068-0.061l-0.029-0.032l-0.013,0.128
	l0.042,0.091L49.539,55.212z M174.333,180.689l-0.247,0.049l-0.147,0.143l-0.117,0.225l-0.306,0.114l-0.045,0.158l0.017,0.199
	l0.096,0.019l0.135-0.116l0.271-0.097l0.23-0.389l0.128-0.124l0.23-0.041l0.014-0.107l-0.077-0.089L174.333,180.689z
	 M42.521,103.136l-0.585-0.247l-0.294-0.051l-0.275,0.047l-0.117,0.195l0.173,0.403l1.201,0.012l0.335,0.136l-0.16-0.278
	L42.521,103.136z M44.823,97.941l-0.165-0.163l-0.509-0.272l-0.155-0.177l-0.018-0.317l0.058-0.29l-0.04-0.249l-0.308-0.196
	l-0.27-0.046l-0.856,0.046l0.254,0.333l0.232,0.842l0.24,0.341l0.405-0.214l0.378,0.267l0.319,0.499l0.22,0.493l0.249,0.146
	l0.073-0.29l-0.037-0.443L44.823,97.941z M1.298,64.176L1.27,64.114l-0.03-0.05l-0.282-0.146l-0.342,0.097L0,64.37v0.156
	l0.382-0.119l0.144,0.051l0.088,0.222l-0.05,0.004l-0.105-0.013L0.409,64.68v0.153l0.264-0.058l0.77-0.405v-0.172l-0.095,0.014
	L1.298,64.176z M54.886,113.62l0.097-0.125l-0.005-0.128l-0.074-0.117l-0.112-0.085l-0.268-0.061l-0.866,0.224v0.131l0.165,0.126
	l0.608,0.695l0.23,0.093l0.839-0.158l1.453,0.938l0.679,0.132l0.069,0.027l0.07,0.082l0.161-0.086l0.111-0.036l0.137-0.011
	l-0.173-0.404l-0.285-0.333l-0.351-0.226l-1.507-0.246l-0.25-0.121v-0.161h0.213v-0.15l-0.365,0.094l-0.431,0.194l-0.395,0.01
	l-0.263-0.459l0.154,0.012L54.886,113.62z M170.519,181.316l-0.12,0.111l-0.094,0.037l-0.04-0.011l-0.05,0.014l-0.048,0.069
	l-0.128,0.07l-0.421-0.017l-0.155,0.078l0.019,0.112l0.363,0.191l0.188,0.062l0.206-0.062l0.207-0.104l0.173-0.228l0.01-0.29
	l-0.06-0.11L170.519,181.316z M30.453,89.797l-0.178-0.096l-0.513-0.525l-0.042-0.065l-0.373-0.294l-0.676-0.354l-0.189-0.045
	l-0.131-0.125H28.25l-0.062,0.139l-0.126,0.123l0.088,0.324l0.162,0.356l0.116,0.362l-0.051,0.349l0.264,0.186l0.774,0.231
	l1.173,0.109l0.399-0.117l0.062-0.409l-0.15-0.177L30.453,89.797z M58.49,118.948l-0.209-0.218l-0.204,0.021l-0.188,0.07
	l-0.171-0.087l-0.352-0.404l-0.47-0.38l-0.509-0.269l-0.465-0.062l0.329,0.748l0.17,0.503l-0.034,0.221l-0.068,0.197l0.25,0.412
	l0.325,0.389l0.315,0.225l0.879,0.999l0.166,0.304l0.123,0.279l0.216,0.75l0.266,0.12l0.218-0.339l0.156-0.566l0.122-0.909
	l-0.025-0.181l-0.112-0.191l-0.431-0.259l-0.157-0.153l0.075-0.191v-0.145l-0.167-0.164l-0.009-0.208l0.023-0.244L58.49,118.948z
	 M198.349,52.688l-2.376-1.27l-0.271-0.033l-0.854,0.091l-1.25-0.363l-0.164,0.047l-0.352,0.19l-0.186,0.05l-0.144-0.023
	l-0.318-0.113l-0.166-0.027l-0.187,0.041l-0.178,0.073l-0.179,0.044l-0.208-0.044l-0.141-0.119l-0.146-0.301l-0.109-0.133
	l-0.332-0.174l-0.657-0.117l-0.325-0.204l-0.199-0.255l-0.34-0.545l-0.209-0.225l0.026-0.075l0.037-0.051l0.113-0.072l-0.1-0.332
	l-0.271-0.1l-0.653-0.045l-0.061-0.254l-0.29-0.026l-0.354,0.107l-0.249,0.141l-0.071,0.113l-0.109,0.336l-0.074,0.127l-0.117,0.05
	l-0.3,0.04l-0.139,0.045l-0.093,0.112l-0.158,0.329l-0.087,0.091l-0.094-0.014l-0.403-0.191l-1.295-0.014l-0.236-0.077l-0.232-0.126
	l-0.576-0.419l-0.081-0.009l-0.135,0.137l0.009,0.127l0.049,0.117l-0.022,0.118l-0.463,0.29l-0.329-0.261l-0.172-0.626l0.004-0.81
	l-0.321-0.014l-0.938-0.537l-0.166-0.021l-0.436,0.041l-0.628-0.142l-0.15,0.038l-0.086,0.316l0.114,0.372l0.055,0.381l-0.259,0.345
	l-0.189,0.044l-0.582-0.218l-0.671-0.009l-0.178-0.073l-0.189-0.321l0.04-0.281l0.08-0.291l-0.097-0.363h-0.064l-0.199,0.132
	l-0.066,0.01l-0.041-0.082l-0.028-0.182l-0.017-0.048l-0.051-0.101l-0.118-0.422l-0.062-0.067l-0.209-0.075l-0.079-0.061
	l-0.017-0.095l0.029-0.231l-0.024-0.1l-0.994-0.96l-0.252-0.31l-0.097-0.266l0.086-0.209l0.263-0.015l0.07-0.187l-0.051-0.136
	l-0.729-0.774l-0.104-0.155l0.028-0.009l-0.007-0.132l-0.04-0.19l-0.088-0.19l-0.26-0.249l-1.376-0.689l-0.166-0.028l-0.124,0.046
	l-0.284,0.194l-0.157,0.032l-0.129-0.013l-0.303-0.031l-0.398-0.218l-0.74-0.559l-0.412-0.164l-0.426-0.043l-0.858,0.094
	l0.094,0.213l-0.422,0.041l-0.107,0.043l-0.076,0.139v0.15l-0.037,0.122l-0.181,0.068l-0.146,0.222l-0.223,0.083L166.664,42
	l-0.262,0.09l-0.202-0.66l-0.287-0.286l-0.949-0.227l-0.381-0.177l-0.258-0.245l-0.475-0.629l-0.158-0.041l-0.014-0.005
	l-0.329-0.199l-0.165-0.026l-0.157,0.085l-0.196,0.258l-0.167,0.072l-0.017,0.009l-0.327-0.058l-0.321-0.159l-0.334-0.077h-0.007
	l-0.368,0.191l-0.183,0.244v0.006l-0.031,0.162l-0.014,0.021l-0.036,0.069l-0.101,0.012l-0.12,0.02l-0.132-0.036l-0.469-0.218
	l-0.194,0.086l-0.088,0.041l-0.181,0.14l-0.194,0.156l-0.299,0.174l-0.09,0.051l-0.325-0.085l-0.076-0.159l-0.017-0.045l0.016-0.205
	l0.051-0.218v-0.239l-0.062-0.213l-0.722-1.31l-0.282-0.25l-0.466-0.172l-0.072-0.043l-0.093-0.06l-0.091-0.015h-0.007l-0.055,0.059
	l-0.062,0.128l-0.082,0.117l-0.026,0.009l-0.077,0.027l-0.248-0.05l-0.079-0.09v-0.003l-0.017-0.105l-0.016-0.104l0.047-0.326
	v-0.006l0.02-0.009l0.103-0.066l0.022-0.034l0.045-0.05l-0.103-0.346l-0.291-0.355l-0.315-0.314l-0.181,0.007l-0.141,0.004
	l-0.241,0.068l-0.438,0.122l-0.344-0.104l-0.275-0.205l-0.074-0.066l-0.149-0.146l-0.37-0.538l-0.267-0.391l-0.181-0.171
	l-0.121-0.038l-0.414-0.117l-0.297-0.173l-0.558-0.553l-0.244-0.13l-0.028-0.02l-0.152,0.01l-0.162,0.01l-0.295,0.104l-0.356,0.124
	l-0.252,0.04l-0.084,0.013l-0.239-0.031l-0.154-0.021V34.1l-0.137-0.172l0.004-0.402v-0.468l-0.034-0.13v-0.006l-0.15-0.243
	l-0.031-0.118l0.025-0.142l0.138-0.154l0.01-0.026l0.039-0.096l0.017-0.072l0.066-0.213l0.035-0.089l0.042-0.104l0.034-0.199
	l-0.014-0.141l-0.014-0.164l-0.225-0.422l-0.007-0.004V30.73l-0.413-0.169l-0.295-0.121h-0.005l-0.199-0.327l0.069-0.371l0.41-1.029
	l0.162-0.412l0.007-0.044l0.008-0.205l-0.021-0.193l0.014-0.15l0.003-0.06l0.079-0.177l0.202-0.439v-0.006l0.096-0.022l0.152,0.173
	l0.004,0.004l0.024-0.24l0.014-0.172l0.08-0.479l0.005-0.108l0.014-0.305l-0.141-0.18l-0.466,0.099l-0.172-0.072l-0.063-0.331
	l-0.004-0.018l-0.403,0.184l-1.602,1.624l-0.087,0.186l-0.04,0.231l0.028,0.1l0.009,0.041l0.021,0.051l0.031,0.062l0.01,0.079
	l0.009,0.085l-0.04,0.245l-0.078,0.499l-0.104,0.372l-0.021,0.041l-0.114,0.227l-0.113,0.071l-0.051,0.033l-0.629,0.101
	l-0.521,0.262l-1.569,0.776l-0.441,0.081l-1.979-0.544l-0.387-0.109l-0.434,0.063l-0.713,0.104l-0.162-0.045l-0.04-0.013
	l-0.841-0.454h0.008l0.111,0.009l-0.012-0.213l-0.006-0.125l-0.041-0.18l-0.041-0.178l-0.069-0.027h-0.003l0.062-0.276l0.066-0.151
	l0.007-0.019l0.002-0.004l0.11-0.137l0.165-0.153l0.109-0.104l0.242-0.174l0.104-0.071l0.2-0.104l0.16-0.078l0.001-0.109v-0.043
	l-0.101-0.189l-0.054-0.125l-0.038-0.091l-0.251-1.011l-0.151-0.076l-0.159,0.026l-0.298,0.136l-0.094-0.045l-0.12-0.062l0.03-0.349
	l0.005-0.073l0.183-0.59l0.106-0.349l0.079-0.427l0.063-0.171l0.005-0.02l0.159-0.23l0.356-0.275l0.021-0.027l0.124-0.141
	l0.021-0.122l0.017-0.123l-0.093-0.155l-0.187-0.163l-0.126-0.081l-0.074-0.046l-0.135-0.048l-0.186,0.081h-0.004l-0.007,0.149
	l0.011,0.086l0.01,0.078h-0.002l-0.04,0.04l-0.07,0.068l-0.184-0.086l-0.092-0.045l-0.313-0.676l-0.096-0.204l-0.001-0.004
	l-0.31-0.276l-0.206-0.12l-0.114-0.067l-0.497-0.552l-0.013-0.005l-0.279-0.136l-0.14,0.018l-0.177,0.019l-0.633,0.269l-0.323,0.134
	h-0.338l-0.063-0.027l-0.204-0.1l-0.146-0.098l-0.114-0.083l-0.308-0.159l-0.624-0.073l-0.654,0.044l-0.087,0.038l-0.116,0.042
	l-0.122,0.139l-0.269,0.457l-0.049,0.146l-0.016,0.051l-0.015,0.026l-0.027,0.045l-0.066,0.045L132.524,22l-0.023,0.013
	l-0.059,0.155l-0.526-0.5l-0.131-0.955l-0.004-1.097l-0.125-0.913l-0.244-0.443l-0.298-0.284l-0.328-0.165l-0.34-0.073l-0.91-0.003
	h-0.059l-0.185-0.14h-0.003l0.134-0.242l0.014-0.021l0.023-0.19l-0.1-0.123l-0.063-0.018l-0.152-0.047l-0.145,0.01l-0.067,0.005
	l-0.125,0.084l-0.029,0.02l-0.054,0.053l-0.094,0.096l-0.055,0.042l-0.151,0.112l-0.514,0.19l-0.142,0.049l-0.138,0.02l-0.228,0.027
	l-0.261-0.073l-0.658-0.344l-0.197-0.153l-0.204-0.269l-0.029-0.036l-0.077-0.268l-0.025-0.752l-0.395-1.327l-0.123-0.685
	l0.109-0.205l0.1-0.19l-0.066-0.226l-0.101-0.34l-0.11-0.194l-0.014-0.022l-0.197-0.064v-0.003l-0.212-0.028l-0.119-0.14
	l-0.186-0.448l-0.166-0.306l-0.072-0.125l-0.219-0.396l-0.255-0.241l-0.31-0.096l-0.08-0.021l-0.721,0.225l-0.458,0.146
	l-0.155,0.043l-0.643,0.205l-0.185,0.117l-0.163,0.101l-0.132,0.145l-0.14,0.15l-0.188,0.326l-0.263,0.457l-0.199,0.155l-0.065-0.02
	l-0.139-0.027l-0.03-0.004l-0.046-0.022l-0.022-0.015l-1.048-0.48l-0.152-0.067l-0.082-0.069l-0.194-0.162l-0.03-0.06l-0.049-0.09
	l-0.201-0.477l-0.086-0.157l-0.062-0.061l-0.496-0.477l-0.1-0.175l-0.044-0.163h-0.003l-0.075-0.137l-0.197-0.103l-0.037-0.007
	l-0.104-0.008l-0.278,0.037l-0.124-0.005l-0.219-0.045l-0.091-0.041l-0.019-0.01l-0.082-0.136l-0.059-0.139l-0.067-0.158
	l-0.038-0.041l-0.031-0.037l-0.047-0.021l-0.136-0.069L115.8,9.274l-0.01-0.019V9.251l0.007-0.05l0.01-0.055l0.115-0.268
	l0.016-0.154l-0.144-0.512l-0.151-0.529l0.086-0.217l0.129-0.129l0.22-0.217l0.051-0.086l0.035-0.06l-0.047-0.471l-0.236-0.357
	h-0.002l-0.534-0.594l-0.149-0.462l-0.026-0.186l-0.124-0.866l-0.025-0.062l-0.2-0.477l-0.222,0.158l-0.61,0.291l-1.223,0.321
	l-0.899-0.111l-0.126,0.021l-0.156,0.085l-2.574,0.843l-2.407,0.305l-0.514,0.304l-0.267-0.055l-2.874,1.261l-0.463,0.435
	l-0.436,0.606l-0.25,0.258l-0.287,0.109L101.2,8.359l-0.128,0.053l-0.368,0.296l0.005,0.117l0.033,0.332l0.244,0.875l0.095,0.543
	L101,11.023l-0.17,0.348l-0.318,0.939l-0.075,0.421l0.008,0.488l0.157,1.011l0.063,1.105l0.082,0.328l0.406,0.629l-0.465,0.353
	l-0.077,0.961l-0.012,1.105l-0.272,0.793v0.163l0.826,0.659v0.144l-0.574-0.122l-0.308,0.631l-0.127,0.916l-0.023,0.753l0.145,0.194
	l0.642,0.312l0.146,0.3l0.095,0.261l0.236,0.188l0.299,0.1l0.291,0.004v0.177h-0.308l0.082,0.176l0.08,0.105l0.102,0.036
	l0.154-0.014v0.164l-0.122,0.121l-0.148,0.014l-1.486-0.727l-0.517,0.07l-0.51,0.693l-0.337,1.236l-0.128,0.2l-0.177,0.15
	l-0.793,0.978l-1.955,1.583l-0.599,0.666l-0.36,0.127l-0.366,0.29l-6.174,2.004L87.12,32.04l-1.173,0.431l-0.589,0.403l-0.52,0.159
	l-1.879,1.127l-0.151,0.219l-1.959,0.91l-0.151,0.146l-0.163,0.003l-0.75,0.609l-0.225,0.265l-0.601,2.04l-0.771,1.415l-0.046,0.172
	l-0.016,0.25l0.047,0.193l0.212,0.147l0.046,0.141l0.128,0.222l0.299,0.181l0.344,0.112l0.264,0.02h0.306l1.074,0.367l1.24,0.171
	l1.239-0.182l1.064-0.669l-0.25,0.343l-0.287,0.26l-0.69,0.353L79.433,42.7l-0.999,0.719l-0.357,0.567l-0.134,0.109l-0.343,0.091
	l-0.41,0.367l-0.701,0.331l-2.403,0.576l-0.381,0.345l-1.405-0.853l-0.753-0.179l-0.455-0.298l-0.264-0.113h-1.023l-0.646-0.285
	l-0.366-0.088l-0.547,0.305l-0.368-0.036l-0.643-0.195l-2.57-0.156l-1.775-0.684l-1.978-0.103l-0.259,0.122L60.4,43.52l-0.111,0.317
	l0.157,0.227v0.157l-0.293,0.083l-0.159-0.096l-0.116-0.162l-0.159-0.139l-0.168,0.024l-0.162,0.105l-0.123,0.017l-0.048-0.231
	l0.031-0.071l0.066-0.117l0.068-0.179l0.031-0.254L59.36,42.7l-0.144-0.35l-1.144-1.449l-0.224-0.637l-0.259-0.407L57.4,39.4
	l0.075-0.545l0.095-0.118l0.132-0.045l0.333-0.01l0.06-0.1l0.038-0.215l0.065-0.219l0.381-0.271l-0.066-0.403l-0.33-0.703
	l-0.071-0.387l-0.059-0.163l-0.125-0.066l-1.801-0.33l-0.272,0.024l-0.692,0.219l-0.219,0.168l-0.385,0.524l-0.235,0.222
	l-0.254,0.119l-0.18-0.006l-0.311-0.122l-0.176-0.026l-0.162,0.049l-0.206,0.227l-0.14,0.05l-0.109-0.05l-0.035-0.112l-0.007-0.114
	l-0.006-0.049l-0.24,0.013l-1.119-0.386l-0.995-0.15l-0.328-0.114l-0.074-0.008l-0.166,0.032l-0.068-0.024l-0.066-0.107l-0.055-0.28
	l-0.074-0.099l-0.148-0.065l-0.421,0.065l-0.175-0.05l-0.298-0.218l-0.142-0.05l-0.403,0.055L47.9,35.737l0.03,0.344l-0.119,0.55
	l0.659,0.281l0.483,0.094l0.133,0.159l0.084,0.229l0.12,0.257l0.111,0.327l0.004,0.385l-0.068,0.724l-0.095,0.231l-0.425,0.39
	l-0.095,0.322l0.079,0.138l0.389,0.475l0.147,0.25l0.054,0.176l0.01,0.122l0.022,0.11l0.219,0.402l0.062,0.145l0.043,0.16
	l0.01,0.331L49.7,43.121l0.047,0.298l0.143,0.166l0.178-0.019l0.198-0.092l0.207-0.055l-0.044,0.091l-0.027,0.067l-0.041,0.16
	l0.297,0.178l0.337,0.37l0.276,0.176l0.123-0.397h0.113l0.195,0.471v0.146h-0.309l0.115,0.358l0.184,0.254l0.429,0.339l-0.067,0.036
	l-0.04,0.031l-0.099,0.106l0.223,0.271l0.249,0.841l0.238,0.282l0.119-0.436l0.32,0.01l0.389,0.19l0.317,0.095v0.141l-0.541-0.158
	l-0.272,0.018l-0.118,0.224l0.024,0.412l0.065,0.449l0.1,0.429l0.128,0.369l0.074-0.114l0.039-0.033l0.186,0.147l-0.293,0.202
	l-0.103,0.141l-0.108,0.294l-0.071,0.296l-0.014,0.254l0.079,0.171l0.212,0.045l-0.066,0.232l-0.034,0.239l-0.013,0.549l0.048,0.195
	l0.104,0.226l0.106,0.131l0.049-0.091l0.116-0.352l0.285-0.165h0.336l0.286,0.141v0.141l-0.364-0.177l-0.201,0.112l-0.097,0.341
	l-0.164,1.324l0.062,0.132l0.178,0.043l0.076,0.128l-0.011,0.202l-0.083,0.26l-0.131-0.19l-0.1,0.231l-0.122,1.094l-0.1,0.261
	l-0.159,0.203l-0.209,0.1v0.169l0.362,0.095l0.182,0.354l0.065,0.539l0.007,0.631l0.126,0.539l0.559,0.498l0.124,0.535l0.078,0.14
	l0.19,0.124l0.515,0.147l0.081,0.091l0.05,0.128l0.019,0.145l0.04,0.105l0.082-0.038l0.072-0.086v-0.054l0.577,0.054l0.333,0.173
	l0.237,0.394l-0.549-0.209l-1.612,0.362l-1.188-0.153l-0.24,0.055l-0.722,0.394l-1.186,0.186l-1.096-0.019l-0.634-0.175
	l-0.341-0.386l-0.005-0.531l0.374-0.608l-0.107-0.162l-0.049-0.12l0.003-0.1l0.042-0.099l-1.527,0.313l0.094,0.167H47.34
	l-0.134,0.074l-0.027,0.158v0.159l-0.054,0.072l-0.226,0.069l-0.175,0.167l-0.112,0.203l-0.047,0.182l0.144,0.276l0.279,0.676
	l0.137,0.132l0.174,0.01l0.156,0.053l0.135,0.136l0.109,0.264l-0.181-0.136l-0.063-0.068l-0.062-0.104h-0.102l0.055,0.362
	l0.22,0.404l-0.082,0.178l0.42,0.293l-0.468,0.305l-0.146,0.157l0.058-0.497l-0.092-0.304l-0.386-0.589l0.048-0.087l0.063-0.222
	l-0.188-0.068l-0.131-0.163l-0.074-0.227l-0.026-0.245l-0.316-0.589l-0.039-0.099l-0.717,0.072l-0.668,0.234l0.121,0.328
	l0.081,0.153l0.104,0.141l-0.19-0.203l-0.184-0.02l-0.176,0.132l-0.167,0.259l0.134,0.117l0.062,0.023v0.153l-0.224,0.128
	l-0.134-0.128l-0.081-0.285l-0.065-0.336l0.008,0.281l-0.052,0.231l-0.107,0.173l-0.164,0.091l-0.029-0.241l-0.055-0.255l-0.1-0.198
	l-0.17-0.083l-0.051-0.118l-0.081-0.53l-0.072-0.121l-0.342,0.166l-0.303,0.319l-0.281,0.193l-0.267-0.215l0.417-0.462l0.077-0.128
	l0.054-0.132l0.067-0.117l0.11-0.091V59.55l-0.197,0.033l-0.153-0.069l-0.105-0.169l-0.057-0.257l-0.206,0.408l-0.393,0.39
	l-0.452,0.3l-0.393,0.153l-0.132-0.312l-0.327-0.047l-0.667,0.206l0.292,0.139l0.125,0.014v0.153l-0.208,0.236l-1.014,0.635
	l-0.268,0.092l-0.156,0.121l-0.116,0.141l-0.355,0.562l-0.29,0.316l-0.246,0.11l-0.594-0.033l-0.062,0.168l0.007,0.327l-0.037,0.213
	l-0.211-0.172l-0.127-0.173l-0.126-0.131l-0.144-0.081l-0.178-0.01l0.117-0.108l0.084-0.133l0.062-0.158l0.044-0.207l-0.855-0.419
	l-0.362-0.271l-0.192-0.094l-0.075-0.073l-0.054-0.141l0.033-0.114l0.042-0.103l-0.021-0.119l-0.06-0.182l-0.151-0.674l-0.978-0.849
	l-0.097-0.227l-0.23-0.267l-0.271-0.236l-0.223-0.145v-0.141l0.063-0.031l0.143-0.125l-0.019-0.152v-0.136l0.019-0.191l-0.298-0.108
	l-0.761-0.042l-0.385-0.146v-0.17H31.36v-0.142l0.253-0.199l0.113-0.067l0.144-0.042v-0.107l-0.017-0.027h-0.035l-0.059-0.023
	l0.11-0.155l-0.149-0.121l-0.158-0.046l-0.157,0.042l-0.149,0.125l-0.245-0.059l-0.293,0.437l-0.495,1.017h-0.114v-0.167
	l0.324-0.426l0.098-0.182l0.193-0.593l0.111-0.182l-0.202-0.17v-0.142l0.106-0.222l-0.012-0.239l-0.105-0.207l-0.186-0.123
	l-0.19,0.057l-0.277,0.338l-0.156-0.074l-0.134,0.174l-0.367,0.316l-0.45,0.562l-0.121,0.218l-0.053,0.285l-0.078-0.144l-0.02-0.065
	l-0.015-0.1l0.193-0.231l0.109-0.412l0.009-0.445l-0.099-0.324l-0.241-0.057l-0.446,0.56l-0.141-0.039h-0.104l-0.174,0.132
	l-1.265,0.481l-0.102,0.068l-0.152,0.185l-0.134,0.091l-0.186,0.019l-0.353-0.028l0.053-0.107l0.028-0.074l0.041-0.061l0.083-0.07
	l-0.208-0.017l-0.519-0.307l-0.474-0.03l-0.139-0.112h-0.095l-0.081,0.19l-0.328,0.588l-0.432,0.196l-0.15,0.193l0.061,0.372
	l0.518,0.648l0.219,0.141l-0.783,0.141l-0.062,0.158l0.062,0.346l0.149,0.525l-0.214,0.119l-0.44,0.003l-0.369-0.117l0.007-0.387
	l-0.535,0.151l-0.191-0.005l-0.169-0.091l-0.346-0.307l-0.166-0.069l-0.697,0.037l-0.281-0.088l-0.194-0.275l0.003,0.145
	l-0.009,0.123l-0.032,0.107l-0.065,0.105l-0.184-0.146l-0.12,0.26l-0.044,0.434l0.038,0.394l-0.119-0.122l-0.046-0.07l-0.047-0.13
	h-0.093l0.081,0.458l0.054,0.19l0.068,0.141l-0.11,0.153l0.11,0.153l-0.11,0.156l-0.193-0.26l-0.445-0.286l-0.181-0.244v-0.141
	l0.065-0.031l0.148-0.136l-0.298-0.074l-0.218,0.115l-0.424,0.426l0.077-0.272l-0.022-0.228l-0.099-0.167l-0.151-0.097v-0.167h0.103
	v-0.146l-0.175-0.062l-0.019-0.119l0.055-0.163l0.037-0.219l-0.092-0.071l-0.533,0.159l-0.316,0.198l-0.183,0.067l-0.207,0.042
	l0.057,0.207l-0.009,0.17l-0.061,0.134l-0.1,0.11H15.94l-0.063-0.168l-0.073-0.107h-0.083l-0.088,0.134l-0.27-0.162l-0.341-0.022
	l-0.348,0.067l-0.288,0.116l-0.253,0.182L13.875,59.7l-0.076,0.231l0.289,0.086v0.168h-0.202l-0.34-0.137l-0.185-0.031l-0.157,0.044
	l-0.458,0.277l-0.349,0.036l0.111-0.497l-0.274-0.327l-0.39-0.019l-0.405,0.159l-0.417,0.245l-0.426,0.082v0.168l0.093,0.025
	l0.205,0.128l-0.347,0.009l-0.495,0.241l-0.341,0.06H8.539v0.139l0.133,0.086l0.031,0.073l-0.027,0.072l-0.045,0.096l0.411,0.168
	L8.757,61.29l-0.686-0.177l-0.193,0.135l0.106,0.308l0.347,0.482l-0.188,0.053l-0.497-0.281L7.355,61.73l-0.466,0.048l-0.281,0.096
	l-0.239,0.165l0.11,0.167l-0.161-0.064l-0.155-0.104l-0.269,0.393l-0.372,0.693l-0.151,0.652l0.381,0.288v0.134l-0.281,0.092
	l-0.177,0.311l-0.076,0.422l0.022,0.428l0.256,0.605l0.023,0.286l-0.279,0.033l0.094,0.465l0.131,0.231l0.2,0.077l0.756,0.008
	l0.134-0.075l0.025-0.163l-0.001-0.164l0.054-0.071l0.29,0.046l0.522,0.216l0.263,0.059l0.292-0.04l0.447-0.228l0.735-0.183
	l0.946-0.598l0.466-0.2l1.014-0.166l0.297-0.113l0.47-0.273l0.267-0.075L11.21,65.98l-0.167,0.136l-0.856,1.041v0.142l0.208-0.021
	l0.201-0.059l0.172-0.091l0.125-0.122l0.112,0.152l-0.054,0.047l-0.017,0.008l-0.042,0.087l0.336-0.062l0.474-0.331l0.223,0.1
	l0.055-0.1l0.093-0.114l0.048-0.107h0.11v0.167h-0.11v0.154l0.235-0.073l0.339-0.248h0.253l-0.289,0.317l-0.147,0.107l-0.07,0.096
	l-0.005,0.095l-0.128,0.05l-0.063,0.055l-0.125,0.2l0.639-0.041l0.096-0.028l0.082,0.228l0.187,0.077l0.208-0.055l0.138-0.181
	l0.063,0.266l0.177,0.087l0.469-0.031v0.167l-1.228,0.263l-0.309-0.122l0.22-0.005l0.095-0.04l0.095-0.096l-1.006,0.073
	l-0.707,0.203l-0.181,0.019l-0.196-0.035l-0.114-0.083l-0.101-0.101l-0.152-0.076L9.26,68.188l-0.416-0.196l0.197-0.834l-0.25-0.116
	l-0.19,0.181l-0.27,0.703l0.029,0.081l0.039,0.159l-0.035,0.153l-0.189,0.068l-0.164-0.032l-0.125-0.049l-0.125-0.009l-0.165,0.09
	l0.043,0.223l-0.043,0.24l0.902,0.036l0.185,0.045l0.103,0.23l-0.057,0.091l-0.117,0.101l-0.072,0.262l0.035,0.17l0.091,0.19
	l0.172,0.257l-0.077,0.15l-0.13,0.475l0.387-0.131l0.266-0.427l0.21-0.511l0.217-0.399l0.417-0.146l0.801,0.513l0.375-0.142
	l0.037,0.146l0.066,0.136l0.096,0.109l0.118,0.071l0.637,0.146l0.201,0.204l0.076,0.503l0.044,0.152l0.211,0.278l0.07,0.249
	l-0.146,0.634l-0.068,0.163l-0.222,0.095l-0.858-0.263l-4.828,1.083L6.648,73.29l-0.117-0.135l-0.052,0.004l-0.052,0.077
	l-0.02,0.085l-0.011,0.078l-0.091,0.168l-0.06,0.141L6.17,73.844L6.071,73.92l1.125,0.322l0.508-0.031l0.257,0.049l0.449,0.44
	l0.196-0.108l0.185-0.224l0.202-0.126l0.149,0.081l1.33,1.053l0.714,0.929l0.227,0.408l0.144,0.611l0.225,0.571l0.052,0.399
	l-0.055,0.149l-0.128,0.032h-0.143l-0.092,0.054l-0.026,0.131l0.034,0.314l-0.008,0.166l2.198,0.105l0.37-0.105l0.228-0.135
	l0.487-0.476v-0.164h-0.409v-0.14l0.051-0.068l0.042-0.086l-0.22-0.158l0.043-0.271l0.208-0.059l0.283,0.488l0.153-0.148l0.137-0.1
	l0.147-0.055l0.187-0.014v-0.141l-0.18-0.172l-0.204-0.305l-0.089-0.339l0.157-0.262l0.048,0.363l0.145,0.348l0.193,0.262
	l0.182,0.105l0.244,0.027l0.197,0.077l0.426,0.352l0.076-0.194l0.114-0.049l0.149-0.004l0.181-0.068l-0.05,0.195l-0.089,0.104
	l-0.119,0.032l-0.152-0.015l0.308,0.086l0.335-0.375l0.108-0.335l-0.136-0.454l0.396,0.076l0.4,0.268l0.282,0.327l0.049,0.241
	l0.186,0.121l0.093,0.041l0.131,0.004l-0.064,0.259l0.055,0.136l0.106,0.086l0.105,0.117l0.287,0.536l0.021,0.071l0.271,0.029
	l0.337-0.07l0.319-0.008l0.217,0.218l0.783-0.441l0.131,0.06l0.125,0.303l0.288,0.105l0.567-0.027l0.07,0.041l0.171,0.191
	l0.117,0.071l0.126,0.019l0.387-0.019l0.531,0.131l0.246,0.004l0.167-0.135l0.055,0.167l0.065,0.096l0.167,0.196l0.214,0.452
	l0.446,0.58l0.064,0.123l0.214,0.063l1.23-0.31v-0.139l-0.072-0.112l-0.093-0.092l-0.116-0.069l0.315-0.076l0.455-0.272l0.413-0.39
	l0.326-0.381v0.164l-0.193,0.154l-0.136,0.264l-0.192,0.493l-0.093,0.028l-0.255-0.038l-0.053,0.088v0.208l-0.016,0.113
	l-0.062,0.045l-0.136,0.012v0.17l0.632,0.062l0.267,0.095l0.238,0.146v0.135l-0.599-0.217l-0.268-0.025l-0.27,0.107l0.402,0.014
	l0.66,0.177l0.382,0.113l0.457,0.516L28.63,82.5l0.139-0.094l0.046-0.204l0.072-0.21l0.209-0.099l-0.156-0.235l-0.058-0.069
	l0.214-0.059l0.117-0.144l0.104-0.083l0.18,0.133l0.021-0.083l-0.001-0.036l0.016-0.019l0.076-0.013l-0.066-0.309l-0.094-0.233
	l-0.144-0.165l-0.209-0.081l0.236-0.051l0.202,0.105l0.161,0.041l0.118-0.237h0.094l-0.009,0.155l0.009,0.466l0.068-0.045
	l0.178-0.067l0.07-0.051v0.222l0.015,0.16l0.03,0.122l0.057,0.119l-1.126,0.524l-0.181,0.626l-0.034,0.283l0.06,0.138l0.142,0.086
	l0.169,0.072l0.142,0.091l0.214,0.25l0.165,0.288l0.106,0.386l0.037,0.518l-0.034,0.298l-0.139,0.376l-0.033,0.241l0.025,0.204
	l0.181,0.639h0.09l0.099-0.1l0.313,0.086l0.204,0.014l-0.332-0.39l-0.249-0.517l-0.085-0.635l0.164-0.748l-0.073-0.042l-0.065-0.077
	l-0.065-0.03l0.125-0.236l0.168-0.014l0.175,0.114l0.146,0.136l-0.099,0.091l-0.098,0.058l0.21,0.128l0.239-0.019l0.474-0.258
	l0.097,0.102l0.088,0.032l0.215,0.014l-0.091-0.294l0.05-0.245l0.1-0.035l0.052,0.342l0.073,0.29l0.137,0.06l0.084-0.141
	l-0.086-0.295l0.2,0.187l0.161,0.227l0.134,0.146l0.126-0.087l0.155,0.223l0.042,0.076l0.039-0.087l0.024-0.062l0.037-0.15
	l-0.156-0.157l-0.168-0.223l-0.133-0.245l-0.054-0.226V82.94l-0.021-0.155l-0.071-0.276l-0.021-0.178h0.113l0.039,0.277l0.1,0.21
	l0.157,0.117l0.215,0.004l-0.128,0.104l-0.047,0.171l0.016,0.227l0.059,0.272h0.101l0.064-0.096l0.048-0.036l0.196-0.036v0.167
	h-0.104v0.135l0.498-0.121l0.294-0.135l0.132-0.268l0.153-0.155l0.773-0.082l0.311-0.149l-0.204-0.136l0.463,0.081l0.18,0.12
	l0.176,0.252l-0.298-0.104l-0.316-0.045l0.75,0.482l0.078,0.125l0.175-0.013l0.068-0.046l0.065-0.108l-0.214-0.149l0.186-0.055
	l0.091-0.108l-0.022-0.141l-0.143-0.154v-0.136l0.336,0.438l-0.068,0.413l-0.586,0.816l0.112,0.149l-0.318,0.214l-0.408,0.041
	l-0.379-0.126l-0.235-0.277l-0.084,0.327l-0.016,0.146l-0.138-0.137l-0.103-0.038l-0.087,0.05l-0.083,0.125h-0.104l-0.222-0.45
	h-0.408l-0.25,0.181l0.256,0.101l0.012,0.109l-0.023,0.031l0.047,0.023l0.17,0.027l0.145,0.073l0.061,0.118l0.058,0.023l0.231,0.434
	l0.029,0.086l0.202,0.19l0.195,0.1l0.225,0.022l0.29-0.027l0.781-0.271l0.251-0.015l0.498,0.177l0.207-0.118l0.021-0.531l0.163,0.12
	l0.175,0.04l0.38-0.005l-0.033-0.151l-0.061-0.084l-0.09-0.046l-0.125-0.021l0.257-0.065l0.222,0.023l0.214-0.032l0.23-0.231
	l-0.113,0.3l-0.225,0.248L37.74,85.49l-0.229,0.042l0.156,0.14l0.092-0.014l0.087-0.076l0.136-0.05h0.563l0.489-0.165l0.196-0.026
	l0.236,0.041l1.146,0.453l0.274,0.004l0.403-0.071l0.243,0.067l-0.312-0.022l-0.547,0.153l-0.937,0.05l-0.166,0.15l0.213,0.29
	l-0.124,0.421l0.189,0.117l0.315,0.036l0.243,0.164l-0.137,0.319l0.246,0.096l0.369,0.008l0.23,0.044l-0.047,0.151l-0.517,0.289
	l-0.144,0.168l-0.113-0.136l0.066-0.041l0.018-0.004l0.029-0.125l-0.251-0.05L40,87.852l-0.159-0.008l-1.191,0.711l0.621,0.409
	l0.171,0.338l0.026,0.644h0.111l0.081-0.217l-0.007-0.092l-0.074-0.156l0.047-0.051l0.048-0.032l0.11-0.059l0.228,0.313l0.3,0.294
	l0.141,0.3l-0.259,0.298l-0.339,0.064l-0.646-0.312l-0.347-0.049v0.149l1.407,0.74l0.438,0.017l0.017-0.062l0.022-0.135l0.056-0.151
	l0.12-0.105l0.111-0.026l0.14-0.004l0.25,0.03l0.24,0.142l0.366,0.425l0.222,0.199l0.271,0.113l0.297,0.004l0.284-0.112l0.351-0.354
	l0.447-0.131l0.157-0.14l0.078-0.14l0.061-0.145l0.104-0.164l0.471-0.285l2.072-0.145l0.569,0.167l0.208,0.213l0.135,0.049
	l0.352,0.038l0.302,0.1l0.518,0.316l0.529,0.439l0.453,0.541l0.26,0.212l0.618,0.126l0.301,0.204l-0.809-0.025l-0.344-0.16
	l-0.332-0.357l-0.152-0.1L48.827,91.6l-0.617-0.448v-0.168h0.309l-0.133-0.14l-0.146-0.096l-0.161-0.05h-0.173l0.1,0.151
	l-0.227,0.009l-0.769-0.208l-0.112-0.105l-0.118-0.149l-0.113,0.022l-0.102,0.05l-0.104,0.077l-1.381,0.15l-0.36,0.155l-0.132,0.187
	l-0.097,0.267l-0.057,0.279l-0.021,0.247l0.044,0.333l0.158,0.346l-0.006,0.3l-0.044,0.324l-0.046,0.183l-0.115,0.077l-0.49,0.067
	l-0.174,0.129l-0.162,0.152l-0.196,0.136l0.53,0.296l1.731,0.302l0.904,0.508l0.233,0.231l0.16,0.254l0.167,0.391l0.027,0.372
	l-0.261,0.198l-0.179,0.39l-0.255,0.794l-0.182,0.33l-0.574,0.358l-0.218,0.231l0.084,0.307l-0.384,0.281l-0.101,0.227l-0.036,0.47
	l0.018,0.378l0.059,0.417l0.11,0.343l0.171,0.141l0.39,0.137l0.465,0.335l0.836,0.874l0.444,0.912l0.127,0.131l0.249,0.028
	l0.253,0.085l0.198,0.159l0.151,0.559l0.18,0.213l0.231,0.199l0.225,0.263l0.094,0.251l0.068,0.296l0.119,0.246l0.24,0.1
	l-0.066,0.38l0.336,1.596l0.139,0.2l0.142,0.074l0.062-0.093l-0.021-0.191l-0.085-0.356l-0.007-0.267l0.145,0.234l0.167,0.476
	l0.109,0.176l0.189,0.118l0.423,0.116l0.503,0.446l0.8,0.141l0.244,0.234l-0.13,0.27l0.407,0.129l1.001,0.047l0.412,0.081
	l0.346,0.24l0.239,0.398l0.088,0.545l0.162,0.467l0.381,0.017l0.798-0.252l0.2,0.081l0.34,0.298l0.46,0.277l0.15,0.028l0.244,0.066
	l0.27,0.412l0.287,0.351l0.404,0.111l-0.019-0.685l0.556-0.336l0.671,0.049l0.327,0.465l0.041,0.304l0.068,0.187l0.012,0.172
	l-0.121,0.277l-1.032,0.643l-0.165,0.286l0.082,0.417l-0.141,0.093l-0.147,0.184l-0.097,0.211l0.016,0.183l0.144,0.149l0.128,0.026
	l0.135-0.008l0.157,0.046l0.225-0.014l0.081,0.014l0.02,0.064l-0.02,0.104l-0.005,0.1l0.062,0.042l0.115,0.03l0.351,0.269
	l-0.18,0.177v0.091l0.091,0.071l0.089,0.1l0.05,0.037l0.192,0.062l0.054,0.035l0.021,0.085l-0.005,0.203l0.107,0.289l0.017,0.216
	l0.052,0.178l0.285,0.11l0.1,0.076l0.084,0.104l0.066,0.095v0.131l-0.166,0.367l-0.201,0.177l-0.248-0.017l-0.318-0.22l0.214,0.713
	l0.164,0.286l0.246,0.167l-0.075,0.063l-0.151,0.157l-0.08,0.074l0.091,0.112l0.11,0.19l0.086,0.223l0.019,0.223l-0.062,0.247
	l-0.097,0.051l-0.119-0.027l-0.141,0.022l-0.232,0.141l-0.167,0.155l-0.072,0.095l-0.076,0.127l-0.106,0.125l-0.166,0.092
	l0.128,0.223l0.1,0.314l0.065,0.32l0.023,0.251l0.08,0.192l0.386,0.462l1.351,1.094l0.334,0.384l-1.051-0.493l-0.179-0.168
	l-0.169-0.112l-0.957-1.133l-0.293-0.013l-0.996,0.306l0.002,0.278l-0.258,1.494l0.27,0.108l0.527-0.117l0.277,0.216l0.184,0.243
	l0.213,0.215l0.247,0.156l0.283,0.054l0.451,0.186l0.805,0.807l0.497,0.183l0.093,0.091l0.06,0.402l0.05,0.09l2.127,1.55
	l0.695,0.797l0.335,0.537l0.301,0.598l0.499,1.347l0.196,0.824l0.572,4.07l0.188,0.674l0.273,0.554l0.534,0.412l0.651,0.214
	l0.6,0.299l0.374,0.667l-0.336-0.281l-0.346-0.178l-0.387-0.087l-0.466-0.022l0.354,0.218l0.335,0.345l0.168,0.459l-0.142,0.571
	l0.094,0.262l0.055,0.598l0.058,0.296l-0.2-0.159l-0.126-0.341l-0.063-0.439l-0.019-0.438l0.042-0.341l-0.023-0.194l-0.123-0.267
	l-0.131-0.15l-0.482-0.285l-0.574-0.563l-0.512-0.665l-0.507-1.234l-0.061-0.239l-0.28-1.972l-0.2-0.793l-0.037-0.426l-0.175-0.645
	l-0.421-0.624l-1.814-2.025l-0.234-0.073l-0.631-0.359l-1.007-0.782l-0.129-0.167l-0.16-0.256l-0.047-0.112l0.002-0.118l0.033-0.112
	l0.04-0.069l0.009-0.244l0.01-0.158l-0.037-0.095l-0.159-0.081l-0.24,0.094l-0.216,0.33l-0.512,1.043l-0.094,0.313l-0.27,4.501
	l-0.623,3.36l-0.914,10.43l0.1-0.236l0.133-0.505l0.17-0.932l0.676-1.033l0.098-0.2l0.036-0.035l0.021-0.082l0.027-0.091
	l0.065-0.069l0.103-0.008l0.072,0.049l0.061,0.065l0.071,0.04l0.166,0.074l1.13,1.062l0.147,0.306h-0.205l0.371,0.389l-0.003,0.323
	l-0.303,0.216l-0.53,0.078l-0.919-0.227l-0.378,0.013l-0.297,0.372l-0.267,0.966l-0.039,0.254l-0.058,0.135l-0.397,0.577
	l-0.015,0.177l0.129,0.599l0.035,0.308l-0.104,1.299l-0.41,2.943l-0.968,5.905l-0.527,2.696l-0.356,1.187l-0.614,3.398l-0.362,1.181
	l-0.104,0.646l-0.239,0.771l-0.117,0.239l-0.792,0.617l-0.129,0.163l-0.066,0.23l-0.324,0.64l-0.131,0.182l-0.28,0.204l-0.334,0.182
	l-0.35,0.126l-1.328,0.218l-0.277,0.112l-0.112,0.157l-0.237-0.173l-0.085,0.575l-0.012,0.43l0.003,0.253l0.43,0.21l0.188,0.252
	l0.05,0.405l0.078,0.163l0.16-0.027l0.177-0.088l0.322-0.039l0.304-0.133l0.137,0.018l0.286,0.137l0.147,0.105l-0.003,0.101
	l-0.04,0.121l0.025,0.181l0.108,0.354l0.074,0.091l0.183,0.085l0.162,0.023l0.19-0.023l0.163-0.093l0.088-0.182l0.118-0.349
	l0.224-0.137l0.297,0.009l0.468,0.141l0.625,0.326l0.167-0.026l0.165-0.06h0.181l0.43,0.45l0.056,0.746l-0.162,0.821l-0.228,0.647
	l-0.19,0.258l-0.618,0.668l-0.124,0.172l0.188,0.446l0.272,0.306l0.33,0.196l0.369,0.095l0.411,0.035l0.256-0.086l0.128-0.275
	l0.034-0.536l0.107-0.412l0.256-0.29l0.337-0.133l0.337,0.092l-0.315,0.271l-0.121,0.269l0.068,0.277l0.253,0.293l0.283,0.169
	l0.87,0.156l0.515,0.286l0.49,0.399l0.563-0.049l0.128,0.049l0.25,0.159l0.113,0.095l0.518,0.064l0.25,0.07l0.183,0.214l0.521,0.396
	l0.574,0.186l1.196,0.101l1.156-0.211l0.401,0.144l0.282,0.723l-0.008,0.146l-0.05,0.095l-0.017,0.108l0.083,0.186l0.153,0.151
	l0.147,0.017l0.146-0.021l0.151,0.027l0.515,0.317l0.267,0.227l0.583,0.781l0.021,0.089l-0.029,0.087l-0.003,0.074l0.099,0.047
	h0.244l0.065,0.023l0.088,0.12l-0.021,0.134l-0.003,0.12l0.145,0.095l0.117-0.016l0.253-0.173l0.131-0.045l0.026-0.485l0.382,0.009
	l0.81,0.382l0.458-0.038l0.363-0.217l0.721-0.571l0.131,0.137l0.117-0.046l0.104-0.157l0.081-0.199l0.231,0.217l0.905,0.548
	l0.18,0.379l0.402,0.052l0.433-0.124l0.27-0.113l-0.033,0.355l0.088,0.352l0.181,0.301l0.246,0.203l0.094,0.113l0.018,0.146
	l0.041,0.132l0.159,0.071l0.19,0.055l0.104,0.092l0.071,0.104l0.087,0.091l0.593,0.235l0.517-0.049l1.159-0.427l0.919-0.14
	l0.282-0.192l0.244-0.034l0.798,0.208l0.24,0.118l0.322,0.571l0.232,0.281l0.223-0.038l0.422-0.594l0.265-0.267l0.273-0.1
	l0.416,0.352l0.032,0.069l-0.005,0.086l0.01,0.082l0.075,0.072l0.299,0.058l0.293-0.017l0.571-0.149l0.249,0.104l1.871-0.053
	l0.531,0.069l0.197-0.069l0.129-0.219l0.016-0.332l-0.104-0.307l-0.178-0.229l-0.213-0.074l0.092-0.204l0.056-0.088l0.112-0.085
	l-0.167-0.231l0.21-0.569l-0.033-0.438l0.072-0.295l0.343-0.136l0.412-0.031l0.266,0.026l0.518,0.205l0.261,0.06l0.291-0.028
	l0.259,0.046l0.647,0.381l0.445,0.175l0.129,0.101l0.24,0.235l0.159,0.069l0.144-0.073l0.14-0.116l0.155-0.051l0.126,0.051
	l0.249,0.203l0.114,0.067l1.279,0.086l0.313,0.101l0.266,0.241l0.146,0.289l0.114,0.317l0.152,0.281l0.258,0.189l0.166,0.019
	l0.501-0.165l1.847,0.01l0.354,0.096l-0.065,0.29l0.075,0.082l0.143,0.01l0.125,0.068l0.264,0.475l0.288,0.399l0.253,0.697
	l0.217,0.285l0.332-0.135l0.232-0.803l0.474,0.023l0.439-0.168l0.229-0.019l0.815,0.561l0.162,0.077l1.707,0.17l-0.131,0.411
	l0.242,0.154l0.349,0.107l0.186,0.27l-0.376,0.034l-0.272,0.27l-0.168,0.421l-0.054,0.508l0.044,0.027l0.03,0.043l0.011,0.051
	l-0.008,0.065l0.277,0.112l0.929,0.126l0.316,0.133l0.84,0.58l0.354,0.08l0.28,0.015l0.234,0.104l0.204,0.338l0.198,0.763
	l0.14,0.312l0.297,0.255l0.185,0.123l0.202,0.031l0.391-0.047l0.247-0.062l0.173-0.114l0.252-0.267l0.358-0.276l0.073-0.119
	l0.111-0.299l0.071-0.104l0.241-0.112l0.707,0.085l0.926-0.289l0.471-0.05l0.421,0.235l0.178,0.149l0.874,0.413l0.467,0.104
	l0.24,0.008l0.109,0.327l0.234,0.316l0.29,0.232l0.276,0.073l0.308,0.171l0.166,0.055l0.154-0.005l0.103-0.095l0.124-0.331
	l0.118-0.105l0.289-0.008l0.69,0.236l0.331,0.062l0.4-0.021l-0.006-0.092l-0.186-0.208l-0.137-0.386l0.118-0.177l0.633-0.498
	l0.267-0.142l0.308-0.021l0.586,0.091l0.313-0.051l0.242-0.149l0.449-0.443l0.243-0.142l0.242-0.028l0.257,0.01l0.249-0.04
	l0.495-0.385l0.482,0.186l0.256-0.168l0.16,0.032l0.439,0.015l0.1,0.026l0.099,0.226l0.116,0.191l0.146,0.155l0.179,0.111
	l0.308,0.101l0.385,0.04l0.394-0.019l1.021-0.177l0.021-0.123l-0.004-0.501l-0.488-0.676l-1.044-1.06l-0.154-0.406l-0.174-1.54
	l0.005-0.242l-0.04-0.115l-0.083-0.054l-0.203,0.012l-0.067-0.028l-0.101-0.157l-0.066-0.152l0.019-0.176l0.148-0.21l0.192,0.285
	l0.09,0.077l0.05-0.146l0.174-1.032l0.019-0.367l-0.021-0.36l-0.067-0.355l-0.091-0.167l-0.167-0.076l-0.423-0.137l-0.236-0.027
	l-0.133-0.072l-0.097-0.129l-0.099-0.283l-0.112-0.138l0.593-0.625l0.176-0.095l0.06-0.109l-0.017-0.466l0.061-0.109l0.133,0.031
	l0.213,0.11l0.103-0.014l0.237-0.231l-0.066-0.196l-0.415-0.342l-0.169-0.301l-0.038-0.32l0.126-0.238l0.325-0.048l-0.199,0.365
	l-0.052,0.183l0.067,0.163l0.171,0.063l0.089-0.165l0.069-0.221l0.118-0.108l0.058-0.118l0.049-0.261l0.042-0.532l0.064-0.212
	l0.287-0.319l0.068-0.248l-0.114-0.191l-0.25-0.154l-0.25-0.28l-0.113-0.564l0.071-0.151l0.181-0.06h0.419l0.063,0.068l-0.139,0.148
	l-0.288,0.213v0.135l0.206,0.114l0.092,0.134l0.072,0.076l0.142-0.035l0.42-0.643l0.082-0.246l0.189-0.213l0.352-0.314l0.112-0.194
	l0.145-0.391l0.1-0.185l0.247-0.313l2.068-1.581l0.539-0.271l0.361-0.068l0.601,0.298l0.313-0.141l1.235-1.517l0.49-0.412
	l1.691-0.921l2.99-2.472v-0.154l-0.508,0.173l-0.456,0.381l-0.788,0.872l-0.768,0.673l-0.49,0.264l-0.51,0.036v-0.132l1.266-0.529
	l0.197-0.25l0.04-0.317l0.11-0.196l0.975-0.819l0.408-0.244l0.929-0.287l0.676-0.486l0.445-0.155l0.839-0.122l-0.143,0.312
	l-0.183,0.199l-0.249,0.123l-0.348,0.086l-0.707,0.063l-0.333,0.104l-0.197,0.253l0.506-0.236l0.91-0.096l0.868,0.089l0.385,0.321
	l0.025,0.073l0.296,1.092l0.082,0.183l0.112,0.125l0.318,0.162l0.364,0.08l4.643,0.151l0.655,0.136l0.398,0.318l0.022,0.363
	l-0.112,0.425l-0.138,0.354l-0.034,0.148l0.405,0.203l0.611,0.173l2.204,0.102l0.528-0.208l-0.361-0.396l-0.456-0.327l-0.407-0.424
	l-0.209-0.694v-1.481l-0.063-0.218l-0.445-0.711v-0.129l0.258,0.154l0.211,0.305l0.155,0.356l0.094,0.313l0.034,0.353l-0.034,1.206
	l0.23,0.546l0.506,0.479l0.624,0.354l0.584,0.174l-0.111-0.337l-0.146-0.126l-0.071-0.11l0.127-0.284l0.141-0.127l0.366-0.083
	l0.164-0.13l0.372-0.173l0.824,0.476l0.29-0.104l0.376,0.104l0.356-0.253l0.164-0.462l-0.176-0.518l-0.219-0.181l-0.183-0.1
	l-0.137-0.171l-0.082-0.391l0.028-0.154l0.071-0.285l0.1-0.274l0.1-0.136l0.091,0.06l0.216,0.294l0.063,0.07l0.354-0.014
	l0.118,0.014l0.305,0.105l0.078,0.107l0.01,0.176l0.109,0.316l0.321,0.377l0.384,0.066l0.42-0.151l0.434-0.292l0.056,0.489
	l-0.196,0.462l-0.305,0.381l-0.287,0.231l-0.411,0.127h-1.339l-0.467,0.264l-0.202,0.417l0.076,0.467l0.396,0.414l0.371,0.102
	l0.947-0.017l0.217-0.085l0.66,0.097l2.001-0.456l0.42,0.288v1.067l0.064,0.12l0.103,0.113l0.1,0.065l0.046-0.019l-0.016,0.154
	l-0.035,0.132l-0.124,0.338l-0.11,0.21l-0.046,0.208l0.113,0.21l0.19,0.071l0.435-0.027l0.202,0.109l0.231-0.087l0.387-0.026
	l0.361,0.05l0.157,0.126l0.083,0.095l0.185-0.045l0.194-0.108l0.258-0.2l0.13,0.068l0.368,0.5l0.115,0.107l0.205,0.08l0.076,0.07
	l0.084,0.049l0.098,0.021l0.092-0.044l0.041-0.097l0.03-0.098l0.051-0.044l0.773,0.035l0.29,0.152l-0.09,0.364l0.561,0.312
	l0.288,0.097l0.335,0.035l0.134,0.062l0.038,0.282l0.137,0.062l0.271,0.021l0.099,0.042l0.091,0.078l-0.486,0.246l-0.111,0.186
	l0.087,0.281l0.145,0.104l0.729,0.317l0.348,0.021l0.148-0.1l0.062-0.281l0.102-0.156l0.243,0.005l0.475,0.09v-0.142l-0.247-0.107
	l-0.323-0.364l-0.249-0.1l0.437-0.223l0.24-0.068l0.247,0.009l-0.039,0.102l-0.026,0.2l-0.039,0.121l0.362-0.15l0.463-0.008
	l0.438,0.107l0.28,0.199l0.102,0.068l1.083,0.066l0.138,0.089v0.209l-0.09,0.338l-0.08,0.065l-0.529,0.01v0.126l0.28,0.059
	l1.003,0.009l0.256-0.067v-0.126h-0.125l-0.102-0.038l-0.19-0.104l0.146-0.427l0.04-0.352l0.106-0.287l0.329-0.21l0.167-0.03
	l1.019,0.03l0.121,0.025l0.228,0.095l0.166,0.021l0.159,0.086l0.071,0.195l0.032,0.191l0.051,0.092l0.544,0.018l0.133-0.119
	l-0.221-0.322l0.079-0.154l-0.007-0.128l0.008-0.161l0.123-0.26l0.141-0.104l0.477-0.037l0.299-0.163l0.311-0.117l0.182-0.009
	l0.367,0.041l0.17-0.032l0.227-0.177l0.235-0.243l0.287-0.18l0.389,0.043l0.157,0.127l0.062,0.17l0.035,0.161l0.061,0.099
	l0.159,0.037l0.29-0.134l0.162-0.041l-0.102-0.282l0.623-0.5l0.095-0.132l-0.032-0.06l-0.078-0.076l-0.067-0.097l-0.026-0.116
	l0.031-0.194l0.05-0.078l0.059-0.049l0.064-0.101l0.135-0.344l-0.032-0.118l-1.442,0.071l-0.091-0.03l0.033-0.172l0.229-0.191
	l0.398-0.215l0.33-0.052l0.139-0.154l0.071-0.221l0.13-0.271l0.242-0.209l0.232-0.089l0.172-0.124l0.113-0.612l0.109-0.377
	l0.161-0.357l0.194-0.214l0.295,0.231l0.38,0.1l0.77-0.037l0.003-0.08l0.072-0.155l0.092-0.095l0.04,0.113l0.037,0.06l0.092,0.032
	l0.101,0.003l0.087-0.019l0.074-0.095l0.03-0.28l0.045-0.059h0.108l0.061-0.015l0.035-0.039l0.542-0.949l0.027-0.055l0.01-0.012
	l0.019-0.336l-0.028-0.005l0.195-0.326l0.231-0.188l0.239-0.138l0.244-0.196l0.346,0.145l0.365-0.116l0.383-0.204l0.398-0.105
	l0.047,0.069l0.027,0.144l0.058,0.11l0.136-0.042l0.072-0.082l0.016-0.086l-0.011-0.109l0.019-0.158l-0.005-0.978l0.055-0.154
	l0.112-0.086l0.114-0.196l0.153-0.194l0.245-0.087l0.216-0.017l0.169-0.062l0.141-0.088l0.139-0.118l0.29-0.433l0.176-0.154
	l0.205,0.089l0.143,0.026l0.729-0.097l-0.065,0.196l-0.034,0.077l0.289-0.041l0.064-0.194l0.018-0.254l0.139-0.204l0.251-0.063
	l0.041-0.271l0.22-0.249l0.29-0.118l0.339,0.2l0.105-0.155l0.145-0.062l0.154,0.021l0.104,0.031l0.084,0.005l0.125-0.057
	l0.008-0.074l-0.023-0.263l0.016-0.077l0.058-0.027l0.062,0.008h0.066l0.199-0.138l-0.301-1.003l-0.076-0.524l0.233-0.433
	l0.653-0.714l0.303-0.486l0.772-0.656l0.335-0.372l0.117-0.24l0.125-0.466l0.095-0.256l0.165-0.186l0.218-0.168l0.169-0.221
	l0.025-0.362l-0.236-0.508l-0.329-0.331l-0.187-0.391l0.21-0.68l-0.467-0.081l-0.616,0.403l-0.433,0.031l-2.606,0.758l-0.607-0.021
	l-0.144-0.031l-0.139-0.134l-0.082-0.177l-0.101-0.15l-0.199-0.077l-0.391-0.07l-0.284-0.114l-1.592-0.984l-0.602-0.224l-0.883-0.47
	l-0.189-0.054l-0.202,0.019l-0.178,0.057l-0.182,0.032l-0.198-0.086l-0.14-0.157l-0.067-0.182l-0.052-0.201l-0.095-0.202
	l-0.141-0.165l-0.292-0.213l-0.137-0.14l-0.084-0.16l-0.178-0.424l-0.118-0.205l-0.331-0.391l-0.063-0.094l-0.054-0.194l0.005-0.104
	l0.035-0.126l0.128-0.655l0.103-0.181l0.503-0.274l-0.39-0.333l-0.458-0.48l-0.333-0.588l-0.052-0.653l0.164-0.28l0.765-0.59
	l0.511-0.892l0.214-0.159l-0.174-0.45l0.109-0.426l0.277-0.339l0.344-0.191l0.275-0.005l0.544,0.164l0.266-0.006l-0.087-0.275
	l-0.456-0.862l-0.058-0.181l-0.082-0.52l-0.167-0.459l0.008-0.027l0.079-0.33l0.026-0.016l-0.006-0.102l0.021-0.056l0.003-0.068
	l-0.036-0.122l-0.06-0.104l-0.271-0.298l-0.75-0.31l-0.263-0.022l-0.738,0.15l-0.285-0.073l-1.032-0.603l-0.492-0.428l-0.263-0.442
	l0.027-1.183l-0.096-0.607l-0.395-0.291l-0.524-0.044l-0.158-0.136l-0.182-0.313l-0.04-0.194l0.019-0.168l-0.023-0.15l-0.244-0.213
	l-0.262-0.402l0.179-0.241l0.271-0.227l0.52-0.298l0.135-0.024l0.272,0.011l0.117-0.022l0.126-0.073l0.272-0.208l0.112-0.061
	l0.526,0.087l0.551,0.299l0.539,0.191l0.488-0.235l0.033-0.132l-0.093-0.096l-0.067-0.117l0.075-0.178l0.119-0.054l0.354-0.005
	l0.134-0.032l0.223-0.199l0.258-0.458l0.194-0.186l0.538-0.244l0.528-0.146l0.118,0.05l0.186,0.227l0.082,0.033l0.1-0.104
	l0.285-0.523l0.407-0.344v-0.335l-0.158-0.425l-0.077-0.616l0.077-0.129l0.484-0.58l0.312-0.557l0.13-0.321l0.018-0.267
	l-0.118-0.091l-0.641-0.282l-0.2-0.148l-0.122-0.241l-0.104-0.267l-0.142-0.236l-0.657-0.49l-0.684-0.385l-0.113-0.312l-0.081-0.885
	l-0.061-0.157l-0.165-0.253l-0.029-0.175l0.043-0.176l0.172-0.378l0.035-0.12l-0.091-0.317l-0.187-0.132l-0.486-0.121l-0.201-0.153
	l-0.34-0.343l-0.202-0.069l-0.39-0.085l-0.407-0.302l-0.305-0.454l-0.164-0.892l-0.041-0.382l0.013-0.384l0.077-0.354l0.194-0.313
	l0.23-0.141l0.444-0.062v-0.037l0.043-0.096l0.065-0.099l0.07-0.059l0.055,0.008l0.123,0.082l0.053,0.011l0.105-0.021l0.372,0.005
	l0.321-0.096l0.34-0.171l0.302-0.259l0.204-0.345l0.095-0.291l0.122-0.257l0.16-0.199l0.212-0.1l-0.104-0.176l-0.082-0.219
	l-0.105-0.394l-0.171-0.445l-0.055-0.231l-0.071-0.05l-1.013-1.146l-0.345-0.149l-0.126,0.051l-0.104,0.107l-0.118,0.088
	l-0.141-0.02l-0.131-0.099l-0.007-0.066l0.03-0.094l-0.011-0.167l0.022-0.019l-0.003-0.225l-0.027-0.215l-0.041,0.019l0.068-0.108
	l0.12-0.15l0.105-0.162l0.014-0.169l-0.226-0.224l-1.196-0.26l-0.13-0.363l0.14-0.743l0.258-0.776l0.533-1.032l-0.343-0.59
	l-0.53-0.562l-0.288-0.499l0.082-0.249l0.396-0.467l0.105-0.362l-0.032-0.412l-0.142-0.214l-0.227-0.114l-2.235-0.578l-0.997-0.032
	l-0.96,0.19l-1.281,0.877l-0.486,0.128l-0.495,0.023l-0.462,0.15l-0.484,0.421l-0.428,0.566l-0.318,0.43l-0.079,0.296l0.061,0.218
	l0.142,0.367l0.004,0.084l0.145,0.358l0.063,0.095l0.159,0.083l0.247-0.118l0.111,0.045l0.074,0.504l-0.388,0.406l-0.959,0.641
	l-0.765,0.896l-0.488,0.252l-0.513-0.229l-0.682,0.023l-0.681,0.164l-0.361,0.218l0.199-0.472l0.114-0.218l0.048-0.187l-0.264-0.333
	l-0.154-0.3l0.053-0.256l0.365-0.231l0.901-0.441l0.023-0.011h0.055l0.118,0.041l0.089,0.01l0.086-0.01l0.331-0.105l0.062-0.141
	l-0.012-0.203l0.009-0.231l0.103-0.616l0.049-0.168l0.491-1.087l-0.021-0.242l-0.183-0.327l-0.223-0.236l-0.809-0.501l0.171-0.162
	l0.026-0.145l-0.026-0.145v-0.168l-0.015-0.069l-0.035-0.086l-0.031-0.104v-0.114l0.06-0.131l0.171-0.187l0.521-0.897l0.528-0.666
	l-0.362-0.407l-0.044-0.289l0.203-0.265l2.013-1.851l1.076-0.589l0.149-0.125l0.394-0.447l0.499-0.264l0.159-0.119l0.163-0.214
	l0.062-0.182l-0.004-0.365l-0.114-0.121l-0.076-0.11l-0.048-0.122l0.026-0.108l0.234-0.71l0.104-0.187l0.086-0.213l0.021-0.306
	l-0.043-0.239l-0.204-0.38l-0.062-0.2l0.221-0.771l0.729-0.422l1.612-0.506l1.004-0.767l0.338-0.492l-0.176-0.41l0.199-0.349
	l0.141-0.139l0.38-0.137l0.055-0.14l0.055-0.036l0.218-0.114l-0.019-0.376l0.447-0.153l0.981-0.912l0.291-0.471l0.434-0.45
	l1.018-0.752l-0.06-0.544l0.096-0.453l0.279-0.293l0.138-0.015l0.08-0.031l0.219-0.3l0.158-0.09l0.152-0.042l0.14-0.092l0.119-0.244
	l-0.158-0.222l-0.223-0.208l-0.225-0.183l-0.278,0.136l-1.782,0.174l0.074-0.282l0.186-0.345l0.221-0.29l0.39-0.231l0.022-0.417
	l0.393-0.087l0.246-0.139l0.22-0.19l0.113-0.185l-0.07-0.27l-0.155-0.302l-0.04-0.25l0.279-0.085l0.136-0.104l0.132-0.032
	l0.14,0.032l0.135,0.104l0.392,0.06l0.745-0.131l0.353,0.071l0.196,0.115l0.197,0.03l0.411-0.041l-0.274,0.629l0.084,0.363
	l0.327,0.195l0.439,0.141l0.062,0.049l0.042,0.076l0.063,0.084l0.114,0.049l0.102-0.022l0.567-0.247l0.398-0.085l1.039,0.045
	l0.417-0.167l0.3-0.391l0.045-0.203l-0.023-0.128l-0.072-0.104l-0.05-0.055l-0.077-0.136v-0.136l0.173-0.049l0.235,0.081
	l0.192,0.122l0.196,0.028l0.23-0.205l0.022-0.041l0.023-0.06v-0.057l-0.014-0.054l-0.108-0.156l-0.033-0.086l0.021-0.071
	l0.089-0.046l0.154,0.031l0.122-0.04l0.063-0.128l-0.005-0.223l-0.05,0.005l-0.253-0.195l-0.032-0.013l0.651-0.535l0.361-0.203
	l0.53-0.187l-0.033-0.004l0.038-0.015l0.062-0.221l0.033-0.082l-0.033-0.214l-0.077-0.111l-0.094-0.086l-0.092-0.114l-0.339-0.675
	l-0.203-0.286l-0.223-0.113l-0.059-0.104l-0.049-0.24l-0.04-0.477l0.055-0.137l0.248-0.262l0.084-0.151l0.012-0.362l-0.188-0.779
	l0.041-0.314l0.213-0.72l0.081-0.108l0.203-0.108l0.037-0.25l-0.082-0.416l0.005-0.101l-0.013-0.053l-0.006-0.06l0.014-0.091
	l0.045-0.1l0.101-0.096l0.062-0.108l0.095-0.228l0.028-0.1l-0.018-0.361l0.075-0.299l0.403-0.427l0.141-0.267l-0.032-0.699
	l-0.647-1.146l-0.045-0.925l0.095-0.434l0.101-0.347l0.107-0.199l0.101-0.134l0.075-0.178l0.034-0.325l0.1-0.274l0.945-1.332
	l0.157-0.326l0.096-0.379l0.031-0.459l0.104-0.471l0.242-0.2l0.278-0.149l0.205-0.332l0.016-0.316l-0.077-0.298l-0.096-0.291
	l-0.048-0.271l0.017-0.295l0.11-0.599l0.078-0.254l0.103-0.216l0.099-0.147l0.072-0.217l0.031-0.43l0.078-0.204l0.182-0.186
	l0.375-0.3V62.98l-0.178-0.481v-0.788l0.129-0.739l0.631-0.986l0.178-0.128l0.25-0.081l0.229-0.201l0.407-0.489l0.181-0.118
	l0.201-0.195l0.156-0.213l0.067-0.183l0.019-0.434l0.082-0.2l0.166-0.06l0.427-0.003l0.113-0.04l0.085-0.079l0.032-0.122
	l0.032-0.214l0.072-0.123l0.066-0.066l0.031-0.057l0.133-0.01l0.552-0.294l0.091-0.077l0.187-0.316l0.682-1.875l0.467-0.887
	L200,53.158l-0.177-0.163L198.349,52.688z M106.931,193.125l-0.149,0.032h-0.041l-0.342-0.049l-0.198-0.151l-0.028-0.258
	l0.166-0.363l0.172-0.08l0.155,0.221l0.149,0.34l0.166,0.292L106.931,193.125z"/>
</svg>
