<svg xmlns="http://www.w3.org/2000/svg" baseProfile="tiny" viewBox="0 0 32 32">
<path fill="#FFFFFF" d="M26.421,8.846C27.407,7.527,27.996,6.157,28,5.178c-0.002-0.316-0.066-0.563-0.187-0.748
	c-0.012-0.022-0.048-0.082-0.107-0.14c-0.062-0.06-0.116-0.092-0.128-0.098C27.384,4.062,27.136,4,26.817,4
	c-0.975,0.002-2.345,0.59-3.663,1.577c-1.068,0.798-2.134,1.923-3.608,3.477c-0.252,0.264-0.514,0.542-0.794,0.833L15.895,9.03
	l0.008-0.008c0.118-0.12,0.186-0.286,0.184-0.448c0.002-0.17-0.067-0.336-0.186-0.454l-0.516-0.518
	C15.264,7.481,15.1,7.414,14.93,7.414c-0.172,0-0.333,0.066-0.453,0.188l-0.773,0.772l-0.408-0.123
	C13.383,8.14,13.431,8,13.431,7.861c0-0.172-0.065-0.334-0.188-0.454l-0.519-0.521c-0.117-0.118-0.282-0.186-0.454-0.186
	s-0.332,0.066-0.449,0.188l-0.708,0.709l-2.908-0.87c-0.065-0.02-0.134-0.03-0.208-0.03c-0.206,0.002-0.398,0.08-0.538,0.218
	L6.437,7.938C6.32,8.054,6.256,8.209,6.256,8.357C6.254,8.578,6.375,8.78,6.569,8.884l6.114,3.416
	c0.028,0.015,0.116,0.079,0.148,0.111l1.743,1.743c-1.631,1.716-3.083,3.381-4.214,4.828c-0.105,0.135-0.205,0.266-0.304,0.396
	l-4.73-0.43c-0.022-0.004-0.048-0.006-0.082-0.006c-0.216,0.006-0.429,0.09-0.586,0.24L4.182,19.66
	C4.063,19.777,3.998,19.932,4,20.082c-0.004,0.23,0.136,0.443,0.344,0.535l3.327,1.58c0.028,0.014,0.103,0.068,0.126,0.094
	l0.276,0.273c-0.086,0.242-0.13,0.455-0.132,0.639c0,0.248,0.08,0.459,0.231,0.613l0.013,0.01l0.004,0.002
	c0.156,0.152,0.36,0.23,0.61,0.23c0.183-0.004,0.391-0.047,0.635-0.133l0.279,0.281c0.022,0.021,0.074,0.096,0.089,0.123l1.577,3.32
	c0.096,0.211,0.304,0.35,0.53,0.35h0.005c0.155,0,0.306-0.064,0.42-0.178l0.488-0.49c0.144-0.152,0.229-0.363,0.231-0.584
	c0-0.027,0-0.049-0.002-0.059l-0.43-4.748c0.13-0.096,0.26-0.197,0.396-0.301c1.45-1.135,3.111-2.588,4.827-4.215l1.745,1.744
	c0.028,0.029,0.094,0.115,0.111,0.15l3.41,6.104c0.104,0.195,0.304,0.316,0.525,0.316c0.158,0,0.311-0.061,0.425-0.18l1.03-1.027
	c0.134-0.141,0.207-0.328,0.21-0.537c0-0.07-0.011-0.139-0.028-0.199l-0.87-2.91l0.708-0.707c0.12-0.119,0.188-0.285,0.188-0.453
	c0-0.17-0.065-0.33-0.186-0.453l-0.52-0.52c-0.12-0.117-0.284-0.186-0.452-0.186c-0.145,0-0.284,0.049-0.395,0.135l-0.12-0.408
	l0.772-0.773c0.118-0.119,0.186-0.283,0.186-0.453c0-0.17-0.065-0.331-0.186-0.451l-0.517-0.519
	c-0.119-0.12-0.285-0.188-0.456-0.188c-0.17,0-0.336,0.068-0.453,0.188l-0.006,0.004l-0.855-2.857
	c0.296-0.282,0.576-0.55,0.844-0.804C24.507,10.971,25.626,9.909,26.421,8.846L26.421,8.846z M26.421,8.846"/>
</svg>
