<svg xmlns="http://www.w3.org/2000/svg" baseProfile="tiny" viewBox="0 0 32 32">
<g>
	<path fill="#FFFFFF" d="M6.405,16.763c0,1.401-0.012,2.744,0.004,4.087c0.01,0.778,0.41,1.379,0.984,1.875
		c0.829,0.715,1.811,1.144,2.845,1.441c3.472,1.007,6.977,1.052,10.497,0.275c1.227-0.271,2.401-0.676,3.451-1.392
		c0.931-0.633,1.469-1.461,1.426-2.637c-0.037-1.093-0.008-2.188-0.008-3.281c0-0.108-0.011-0.219-0.018-0.359
		c-0.13,0.046-0.227,0.076-0.318,0.111c-2.817,1.103-5.639,2.197-8.451,3.312c-0.557,0.22-1.074,0.222-1.629,0.002
		c-2.561-1.018-5.128-2.016-7.694-3.017C7.146,17.046,6.799,16.914,6.405,16.763z M28.078,25.197
		c0.055-0.002,0.109-0.004,0.164-0.004c0.388-1.186,0.787-2.361,1.154-3.551c0.141-0.457-0.035-0.873-0.395-1.176
		c-0.168-0.143-0.202-0.283-0.201-0.48c0.006-1.592,0.006-3.186,0.004-4.776c-0.003-0.552-0.055-1.095-0.279-1.631
		c-0.4,0.159-0.783,0.31-1.146,0.452c0.044,0.328,0.114,0.613,0.116,0.9c0.014,1.728,0.018,3.454,0.009,5.184
		c0,0.103-0.075,0.229-0.153,0.304c-0.353,0.33-0.574,0.724-0.432,1.197C27.287,22.816,27.689,24.004,28.078,25.197z"/>
	<path fill="#FFFFFF" d="M0,11.604c0.14-0.28,0.379-0.414,0.672-0.502c4.964-1.507,9.926-3.017,14.887-4.532
		c0.303-0.093,0.58-0.093,0.882,0c4.961,1.517,9.923,3.025,14.887,4.532c0.293,0.088,0.531,0.222,0.672,0.502
		c0,0.125,0,0.25,0,0.375c-0.154,0.263-0.391,0.404-0.672,0.511c-0.924,0.35-1.84,0.716-2.701,1.053
		c-0.314-0.347-0.572-0.696-0.895-0.974c-0.426-0.364-0.979-0.438-1.52-0.508c-3.332-0.433-6.666-0.86-9.999-1.289
		c-0.406-0.051-0.674,0.101-0.776,0.416c-0.092,0.283,0.007,0.596,0.263,0.73c0.133,0.071,0.293,0.105,0.445,0.125
		c3.342,0.438,6.685,0.871,10.027,1.311c0.435,0.058,0.882,0.111,1.104,0.576c0.016,0.027,0.021,0.057,0.037,0.107
		c-0.082,0.039-0.162,0.082-0.246,0.115c-3.553,1.39-7.105,2.775-10.657,4.17c-0.291,0.113-0.554,0.104-0.843-0.008
		c-4.984-1.955-9.971-3.898-14.952-5.859C0.386,12.364,0.205,12.141,0,11.979C0,11.854,0,11.729,0,11.604z"/>
</g>
</svg>
